# MagicaVoxel @ Ephtracy

# material
mtllib tt-garden.mtl
usemtl palette

# normals
vn -1 0 0
vn 1 0 0
vn 0 0 1
vn 0 0 -1
vn 0 -1 0
vn 0 1 0

# texcoords
vt 0.587891 0.5
vt 0.892578 0.5
vt 0.904297 0.5

# verts
v -8 0 8
v -8 0 -8
v -8 3 5
v -8 3 3
v -8 3 1
v -8 3 -1
v -8 3 -3
v -8 3 -5
v -8 5 5
v -8 5 3
v -8 5 1
v -8 5 -1
v -8 7 5
v -8 7 -1
v -8 9 5
v -8 9 1
v -8 9 -3
v -8 9 -5
v -8 11 5
v -8 11 3
v -8 11 -3
v -8 11 -5
v -8 13 5
v -8 13 3
v -8 13 1
v -8 13 -1
v -8 13 -3
v -8 13 -5
v -8 16 8
v -8 16 -8
v -7 3 5
v -7 3 3
v -7 3 1
v -7 3 -1
v -7 3 -3
v -7 3 -5
v -7 5 5
v -7 5 3
v -7 5 1
v -7 5 -1
v -7 7 5
v -7 7 -1
v -7 9 5
v -7 9 1
v -7 9 -3
v -7 9 -5
v -7 11 5
v -7 11 3
v -7 11 -3
v -7 11 -5
v -7 13 5
v -7 13 3
v -7 13 1
v -7 13 -1
v -7 13 -3
v -7 13 -5
v -3 0 1
v -3 0 -5
v -3 1 1
v -3 1 -5
v -3 3 8
v -3 3 7
v -3 3 -7
v -3 3 -8
v -3 5 8
v -3 5 7
v -3 5 -7
v -3 5 -8
v -3 7 8
v -3 7 7
v -3 11 8
v -3 11 7
v -3 11 -7
v -3 11 -8
v -3 13 -7
v -3 13 -8
v -3 15 5
v -3 15 3
v -3 15 1
v -3 15 -5
v -3 16 5
v -3 16 3
v -3 16 1
v -3 16 -5
v 1 0 5
v 1 0 3
v 1 0 1
v 1 0 -1
v 1 1 5
v 1 1 3
v 1 1 1
v 1 1 -1
v 1 3 8
v 1 3 7
v 1 3 -7
v 1 3 -8
v 1 5 -7
v 1 5 -8
v 1 9 8
v 1 9 7
v 1 11 8
v 1 11 7
v 1 11 -7
v 1 11 -8
v 1 13 8
v 1 13 7
v 1 13 -7
v 1 13 -8
v 1 15 5
v 1 15 -1
v 1 16 5
v 1 16 -1
v 5 0 5
v 5 0 -1
v 5 0 -3
v 5 0 -5
v 5 1 5
v 5 1 -1
v 5 1 -3
v 5 1 -5
v 5 3 8
v 5 3 7
v 5 3 -7
v 5 3 -8
v 5 5 8
v 5 5 7
v 5 5 -7
v 5 5 -8
v 5 7 8
v 5 7 7
v 5 7 -7
v 5 7 -8
v 5 9 8
v 5 9 7
v 5 9 -7
v 5 9 -8
v 5 11 8
v 5 11 7
v 5 11 -7
v 5 11 -8
v 5 13 8
v 5 13 7
v 5 13 -7
v 5 13 -8
v 5 15 5
v 5 15 3
v 5 15 1
v 5 15 -5
v 5 16 5
v 5 16 3
v 5 16 1
v 5 16 -5
v -5 0 5
v -5 0 3
v -5 0 1
v -5 0 -5
v -5 1 5
v -5 1 3
v -5 1 1
v -5 1 -5
v -5 3 8
v -5 3 7
v -5 3 -7
v -5 3 -8
v -5 5 8
v -5 5 7
v -5 5 -7
v -5 5 -8
v -5 7 8
v -5 7 7
v -5 7 -7
v -5 7 -8
v -5 9 -7
v -5 9 -8
v -5 11 -7
v -5 11 -8
v -5 13 8
v -5 13 7
v -5 13 -7
v -5 13 -8
v -5 15 5
v -5 15 3
v -5 15 1
v -5 15 -5
v -5 16 5
v -5 16 3
v -5 16 1
v -5 16 -5
v -1 0 1
v -1 0 -1
v -1 0 -3
v -1 0 -5
v -1 1 1
v -1 1 -1
v -1 1 -3
v -1 1 -5
v -1 3 8
v -1 3 7
v -1 3 -7
v -1 3 -8
v -1 5 -7
v -1 5 -8
v -1 9 8
v -1 9 7
v -1 11 -7
v -1 11 -8
v -1 13 -7
v -1 13 -8
v -1 15 5
v -1 15 -1
v -1 15 -3
v -1 15 -5
v -1 16 5
v -1 16 -1
v -1 16 -3
v -1 16 -5
v 3 0 5
v 3 0 -1
v 3 1 5
v 3 1 -1
v 3 3 8
v 3 3 7
v 3 3 -7
v 3 3 -8
v 3 5 8
v 3 5 7
v 3 5 -7
v 3 5 -8
v 3 7 8
v 3 7 7
v 3 9 8
v 3 9 7
v 3 11 8
v 3 11 7
v 3 11 -7
v 3 11 -8
v 3 13 8
v 3 13 7
v 3 13 -7
v 3 13 -8
v 3 15 5
v 3 15 3
v 3 15 1
v 3 15 -3
v 3 16 5
v 3 16 3
v 3 16 1
v 3 16 -3
v 7 3 5
v 7 3 3
v 7 3 1
v 7 3 -1
v 7 3 -3
v 7 3 -5
v 7 5 5
v 7 5 3
v 7 5 1
v 7 5 -1
v 7 7 5
v 7 7 3
v 7 7 1
v 7 7 -1
v 7 9 5
v 7 9 3
v 7 9 1
v 7 9 -1
v 7 11 5
v 7 11 3
v 7 11 1
v 7 11 -1
v 7 13 5
v 7 13 3
v 7 13 1
v 7 13 -1
v 7 13 -3
v 7 13 -5
v 8 0 8
v 8 0 -8
v 8 3 5
v 8 3 3
v 8 3 1
v 8 3 -1
v 8 3 -3
v 8 3 -5
v 8 5 5
v 8 5 3
v 8 5 1
v 8 5 -1
v 8 7 5
v 8 7 3
v 8 7 1
v 8 7 -1
v 8 9 5
v 8 9 3
v 8 9 1
v 8 9 -1
v 8 11 5
v 8 11 3
v 8 11 1
v 8 11 -1
v 8 13 5
v 8 13 3
v 8 13 1
v 8 13 -1
v 8 13 -3
v 8 13 -5
v 8 16 8
v 8 16 -8
v -8 0 8
v -8 16 8
v -5 3 8
v -5 5 8
v -5 7 8
v -5 13 8
v -3 3 8
v -3 5 8
v -3 7 8
v -3 11 8
v -1 3 8
v -1 9 8
v 1 3 8
v 1 9 8
v 1 11 8
v 1 13 8
v 3 3 8
v 3 5 8
v 3 7 8
v 3 9 8
v 3 11 8
v 3 13 8
v 5 3 8
v 5 5 8
v 5 7 8
v 5 9 8
v 5 11 8
v 5 13 8
v 8 0 8
v 8 16 8
v -5 3 7
v -5 5 7
v -5 7 7
v -5 13 7
v -3 3 7
v -3 5 7
v -3 7 7
v -3 11 7
v -1 3 7
v -1 9 7
v 1 3 7
v 1 9 7
v 1 11 7
v 1 13 7
v 3 3 7
v 3 5 7
v 3 7 7
v 3 9 7
v 3 11 7
v 3 13 7
v 5 3 7
v 5 5 7
v 5 7 7
v 5 9 7
v 5 11 7
v 5 13 7
v -8 3 3
v -8 5 3
v -8 11 3
v -8 13 3
v -7 3 3
v -7 5 3
v -7 11 3
v -7 13 3
v -5 0 3
v -5 1 3
v -5 15 3
v -5 16 3
v -3 15 3
v -3 16 3
v 1 0 3
v 1 1 3
v 3 15 3
v 3 16 3
v 5 15 3
v 5 16 3
v 7 3 3
v 7 5 3
v 7 7 3
v 7 9 3
v 7 11 3
v 7 13 3
v 8 3 3
v 8 5 3
v 8 7 3
v 8 9 3
v 8 11 3
v 8 13 3
v -8 3 -1
v -8 5 -1
v -8 7 -1
v -8 13 -1
v -7 3 -1
v -7 5 -1
v -7 7 -1
v -7 13 -1
v -1 0 -1
v -1 1 -1
v -1 15 -1
v -1 16 -1
v 1 0 -1
v 1 1 -1
v 1 15 -1
v 1 16 -1
v 3 0 -1
v 3 1 -1
v 5 0 -1
v 5 1 -1
v 7 3 -1
v 7 5 -1
v 7 7 -1
v 7 9 -1
v 7 11 -1
v 7 13 -1
v 8 3 -1
v 8 5 -1
v 8 7 -1
v 8 9 -1
v 8 11 -1
v 8 13 -1
v -8 3 -5
v -8 9 -5
v -8 11 -5
v -8 13 -5
v -7 3 -5
v -7 9 -5
v -7 11 -5
v -7 13 -5
v -5 0 -5
v -5 1 -5
v -5 15 -5
v -5 16 -5
v -3 0 -5
v -3 1 -5
v -3 15 -5
v -3 16 -5
v -1 0 -5
v -1 1 -5
v -1 15 -5
v -1 16 -5
v 5 0 -5
v 5 1 -5
v 5 15 -5
v 5 16 -5
v 7 3 -5
v 7 13 -5
v 8 3 -5
v 8 13 -5
v -8 3 5
v -8 5 5
v -8 7 5
v -8 9 5
v -8 11 5
v -8 13 5
v -7 3 5
v -7 5 5
v -7 7 5
v -7 9 5
v -7 11 5
v -7 13 5
v -5 0 5
v -5 1 5
v -5 15 5
v -5 16 5
v -3 15 5
v -3 16 5
v -1 15 5
v -1 16 5
v 1 0 5
v 1 1 5
v 1 15 5
v 1 16 5
v 3 0 5
v 3 1 5
v 3 15 5
v 3 16 5
v 5 0 5
v 5 1 5
v 5 15 5
v 5 16 5
v 7 3 5
v 7 5 5
v 7 7 5
v 7 9 5
v 7 11 5
v 7 13 5
v 8 3 5
v 8 5 5
v 8 7 5
v 8 9 5
v 8 11 5
v 8 13 5
v -8 3 1
v -8 5 1
v -8 9 1
v -8 13 1
v -7 3 1
v -7 5 1
v -7 9 1
v -7 13 1
v -5 0 1
v -5 1 1
v -5 15 1
v -5 16 1
v -3 0 1
v -3 1 1
v -3 15 1
v -3 16 1
v -1 0 1
v -1 1 1
v 1 0 1
v 1 1 1
v 3 15 1
v 3 16 1
v 5 15 1
v 5 16 1
v 7 3 1
v 7 5 1
v 7 7 1
v 7 9 1
v 7 11 1
v 7 13 1
v 8 3 1
v 8 5 1
v 8 7 1
v 8 9 1
v 8 11 1
v 8 13 1
v -8 3 -3
v -8 9 -3
v -8 11 -3
v -8 13 -3
v -7 3 -3
v -7 9 -3
v -7 11 -3
v -7 13 -3
v -1 0 -3
v -1 1 -3
v -1 15 -3
v -1 16 -3
v 3 15 -3
v 3 16 -3
v 5 0 -3
v 5 1 -3
v 7 3 -3
v 7 13 -3
v 8 3 -3
v 8 13 -3
v -5 3 -7
v -5 5 -7
v -5 7 -7
v -5 9 -7
v -5 11 -7
v -5 13 -7
v -3 3 -7
v -3 5 -7
v -3 11 -7
v -3 13 -7
v -1 3 -7
v -1 5 -7
v -1 11 -7
v -1 13 -7
v 1 3 -7
v 1 5 -7
v 1 11 -7
v 1 13 -7
v 3 3 -7
v 3 5 -7
v 3 11 -7
v 3 13 -7
v 5 3 -7
v 5 5 -7
v 5 7 -7
v 5 9 -7
v 5 11 -7
v 5 13 -7
v -8 0 -8
v -8 16 -8
v -5 3 -8
v -5 5 -8
v -5 7 -8
v -5 9 -8
v -5 11 -8
v -5 13 -8
v -3 3 -8
v -3 5 -8
v -3 11 -8
v -3 13 -8
v -1 3 -8
v -1 5 -8
v -1 11 -8
v -1 13 -8
v 1 3 -8
v 1 5 -8
v 1 11 -8
v 1 13 -8
v 3 3 -8
v 3 5 -8
v 3 11 -8
v 3 13 -8
v 5 3 -8
v 5 5 -8
v 5 7 -8
v 5 9 -8
v 5 11 -8
v 5 13 -8
v 8 0 -8
v 8 16 -8
v -8 0 8
v 8 0 8
v -5 0 5
v 1 0 5
v 3 0 5
v 5 0 5
v -5 0 3
v 1 0 3
v -5 0 1
v -3 0 1
v -1 0 1
v 1 0 1
v -1 0 -1
v 1 0 -1
v 3 0 -1
v 5 0 -1
v -1 0 -3
v 5 0 -3
v -5 0 -5
v -3 0 -5
v -1 0 -5
v 5 0 -5
v -8 0 -8
v 8 0 -8
v -5 1 5
v 1 1 5
v 3 1 5
v 5 1 5
v -5 1 3
v 1 1 3
v -5 1 1
v -3 1 1
v -1 1 1
v 1 1 1
v -1 1 -1
v 1 1 -1
v 3 1 -1
v 5 1 -1
v -1 1 -3
v 5 1 -3
v -5 1 -5
v -3 1 -5
v -1 1 -5
v 5 1 -5
v -5 5 8
v -3 5 8
v 3 5 8
v 5 5 8
v -5 5 7
v -3 5 7
v 3 5 7
v 5 5 7
v -8 5 5
v -7 5 5
v 7 5 5
v 8 5 5
v -8 5 3
v -7 5 3
v 7 5 3
v 8 5 3
v -8 5 1
v -7 5 1
v 7 5 1
v 8 5 1
v -8 5 -1
v -7 5 -1
v 7 5 -1
v 8 5 -1
v -5 5 -7
v -3 5 -7
v -1 5 -7
v 1 5 -7
v 3 5 -7
v 5 5 -7
v -5 5 -8
v -3 5 -8
v -1 5 -8
v 1 5 -8
v 3 5 -8
v 5 5 -8
v -1 9 8
v 1 9 8
v 3 9 8
v 5 9 8
v -1 9 7
v 1 9 7
v 3 9 7
v 5 9 7
v -8 9 5
v -7 9 5
v 7 9 5
v 8 9 5
v 7 9 3
v 8 9 3
v -8 9 1
v -7 9 1
v 7 9 1
v 8 9 1
v 7 9 -1
v 8 9 -1
v -8 9 -3
v -7 9 -3
v -8 9 -5
v -7 9 -5
v -5 9 -7
v 5 9 -7
v -5 9 -8
v 5 9 -8
v -5 13 8
v 1 13 8
v 3 13 8
v 5 13 8
v -5 13 7
v 1 13 7
v 3 13 7
v 5 13 7
v -8 13 5
v -7 13 5
v 7 13 5
v 8 13 5
v -8 13 3
v -7 13 3
v 7 13 3
v 8 13 3
v -8 13 1
v -7 13 1
v 7 13 1
v 8 13 1
v -8 13 -1
v -7 13 -1
v 7 13 -1
v 8 13 -1
v -8 13 -3
v -7 13 -3
v 7 13 -3
v 8 13 -3
v -8 13 -5
v -7 13 -5
v 7 13 -5
v 8 13 -5
v -5 13 -7
v -3 13 -7
v -1 13 -7
v 1 13 -7
v 3 13 -7
v 5 13 -7
v -5 13 -8
v -3 13 -8
v -1 13 -8
v 1 13 -8
v 3 13 -8
v 5 13 -8
v -5 3 8
v -3 3 8
v -1 3 8
v 1 3 8
v 3 3 8
v 5 3 8
v -5 3 7
v -3 3 7
v -1 3 7
v 1 3 7
v 3 3 7
v 5 3 7
v -8 3 5
v -7 3 5
v 7 3 5
v 8 3 5
v -8 3 3
v -7 3 3
v 7 3 3
v 8 3 3
v -8 3 1
v -7 3 1
v 7 3 1
v 8 3 1
v -8 3 -1
v -7 3 -1
v 7 3 -1
v 8 3 -1
v -8 3 -3
v -7 3 -3
v 7 3 -3
v 8 3 -3
v -8 3 -5
v -7 3 -5
v 7 3 -5
v 8 3 -5
v -5 3 -7
v -3 3 -7
v -1 3 -7
v 1 3 -7
v 3 3 -7
v 5 3 -7
v -5 3 -8
v -3 3 -8
v -1 3 -8
v 1 3 -8
v 3 3 -8
v 5 3 -8
v -5 7 8
v -3 7 8
v 3 7 8
v 5 7 8
v -5 7 7
v -3 7 7
v 3 7 7
v 5 7 7
v -8 7 5
v -7 7 5
v 7 7 5
v 8 7 5
v 7 7 3
v 8 7 3
v 7 7 1
v 8 7 1
v -8 7 -1
v -7 7 -1
v 7 7 -1
v 8 7 -1
v -5 7 -7
v 5 7 -7
v -5 7 -8
v 5 7 -8
v -3 11 8
v 1 11 8
v 3 11 8
v 5 11 8
v -3 11 7
v 1 11 7
v 3 11 7
v 5 11 7
v -8 11 5
v -7 11 5
v 7 11 5
v 8 11 5
v -8 11 3
v -7 11 3
v 7 11 3
v 8 11 3
v 7 11 1
v 8 11 1
v 7 11 -1
v 8 11 -1
v -8 11 -3
v -7 11 -3
v -8 11 -5
v -7 11 -5
v -5 11 -7
v -3 11 -7
v -1 11 -7
v 1 11 -7
v 3 11 -7
v 5 11 -7
v -5 11 -8
v -3 11 -8
v -1 11 -8
v 1 11 -8
v 3 11 -8
v 5 11 -8
v -5 15 5
v -3 15 5
v -1 15 5
v 1 15 5
v 3 15 5
v 5 15 5
v -5 15 3
v -3 15 3
v 3 15 3
v 5 15 3
v -5 15 1
v -3 15 1
v 3 15 1
v 5 15 1
v -1 15 -1
v 1 15 -1
v -1 15 -3
v 3 15 -3
v -5 15 -5
v -3 15 -5
v -1 15 -5
v 5 15 -5
v -8 16 8
v 8 16 8
v -5 16 5
v -3 16 5
v -1 16 5
v 1 16 5
v 3 16 5
v 5 16 5
v -5 16 3
v -3 16 3
v 3 16 3
v 5 16 3
v -5 16 1
v -3 16 1
v 3 16 1
v 5 16 1
v -1 16 -1
v 1 16 -1
v -1 16 -3
v 3 16 -3
v -5 16 -5
v -3 16 -5
v -1 16 -5
v 5 16 -5
v -8 16 -8
v 8 16 -8

# faces
f 3/2/1 2/2/1 1/2/1
f 4/2/1 2/2/1 3/2/1
f 5/2/1 2/2/1 4/2/1
f 6/2/1 2/2/1 5/2/1
f 7/2/1 2/2/1 6/2/1
f 8/2/1 2/2/1 7/2/1
f 9/2/1 3/2/1 1/2/1
f 10/2/1 5/2/1 4/2/1
f 11/2/1 5/2/1 10/2/1
f 12/2/1 7/2/1 6/2/1
f 13/2/1 11/2/1 10/2/1
f 13/2/1 12/2/1 11/2/1
f 13/2/1 9/2/1 1/2/1
f 13/2/1 10/2/1 9/2/1
f 14/2/1 7/2/1 12/2/1
f 14/2/1 12/2/1 13/2/1
f 15/2/1 13/2/1 1/2/1
f 17/2/1 7/2/1 14/2/1
f 18/2/1 2/2/1 8/2/1
f 19/2/1 16/2/1 15/2/1
f 19/2/1 15/2/1 1/2/1
f 20/2/1 16/2/1 19/2/1
f 21/2/1 17/2/1 14/2/1
f 21/2/1 18/2/1 17/2/1
f 22/2/1 2/2/1 18/2/1
f 22/2/1 18/2/1 21/2/1
f 23/2/1 19/2/1 1/2/1
f 24/2/1 16/2/1 20/2/1
f 25/2/1 16/2/1 24/2/1
f 26/2/1 21/2/1 14/2/1
f 27/2/1 21/2/1 26/2/1
f 28/2/1 2/2/1 22/2/1
f 29/2/1 23/2/1 1/2/1
f 29/2/1 28/2/1 27/2/1
f 29/2/1 27/2/1 26/2/1
f 29/2/1 25/2/1 24/2/1
f 29/2/1 26/2/1 25/2/1
f 29/2/1 24/2/1 23/2/1
f 30/2/1 2/2/1 28/2/1
f 30/2/1 28/2/1 29/2/1
f 37/1/1 32/1/1 31/1/1
f 38/1/1 32/1/1 37/1/1
f 39/1/1 34/1/1 33/1/1
f 40/1/1 34/1/1 39/1/1
f 43/1/1 42/1/1 41/1/1
f 44/1/1 42/1/1 43/1/1
f 45/1/1 36/1/1 35/1/1
f 46/1/1 36/1/1 45/1/1
f 51/1/1 48/1/1 47/1/1
f 52/1/1 48/1/1 51/1/1
f 53/1/1 42/1/1 44/1/1
f 54/1/1 42/1/1 53/1/1
f 55/1/1 50/1/1 49/1/1
f 56/1/1 50/1/1 55/1/1
f 59/2/1 58/2/1 57/2/1
f 60/2/1 58/2/1 59/2/1
f 65/2/1 62/2/1 61/2/1
f 66/2/1 62/2/1 65/2/1
f 67/2/1 64/2/1 63/2/1
f 68/2/1 64/2/1 67/2/1
f 71/2/1 70/2/1 69/2/1
f 72/2/1 70/2/1 71/2/1
f 75/2/1 74/2/1 73/2/1
f 76/2/1 74/2/1 75/2/1
f 81/2/1 78/2/1 77/2/1
f 82/2/1 78/2/1 81/2/1
f 83/2/1 80/2/1 79/2/1
f 84/2/1 80/2/1 83/2/1
f 89/2/1 86/2/1 85/2/1
f 90/2/1 86/2/1 89/2/1
f 91/2/1 88/2/1 87/2/1
f 92/2/1 88/2/1 91/2/1
f 97/2/1 96/2/1 95/2/1
f 98/2/1 96/2/1 97/2/1
f 99/2/1 94/2/1 93/2/1
f 100/2/1 94/2/1 99/2/1
f 105/2/1 102/2/1 101/2/1
f 106/2/1 102/2/1 105/2/1
f 107/2/1 104/2/1 103/2/1
f 108/2/1 104/2/1 107/2/1
f 111/2/1 110/2/1 109/2/1
f 112/2/1 110/2/1 111/2/1
f 117/2/1 114/2/1 113/2/1
f 118/2/1 114/2/1 117/2/1
f 119/2/1 116/2/1 115/2/1
f 120/2/1 116/2/1 119/2/1
f 125/2/1 122/2/1 121/2/1
f 126/2/1 122/2/1 125/2/1
f 127/2/1 124/2/1 123/2/1
f 128/2/1 124/2/1 127/2/1
f 133/2/1 130/2/1 129/2/1
f 134/2/1 130/2/1 133/2/1
f 135/2/1 132/2/1 131/2/1
f 136/2/1 132/2/1 135/2/1
f 141/2/1 138/2/1 137/2/1
f 142/2/1 138/2/1 141/2/1
f 143/2/1 140/2/1 139/2/1
f 144/2/1 140/2/1 143/2/1
f 149/2/1 146/2/1 145/2/1
f 150/2/1 146/2/1 149/2/1
f 151/2/1 148/2/1 147/2/1
f 152/2/1 148/2/1 151/2/1
f 153/2/2 154/2/2 157/2/2
f 157/2/2 154/2/2 158/2/2
f 155/2/2 156/2/2 159/2/2
f 159/2/2 156/2/2 160/2/2
f 161/2/2 162/2/2 165/2/2
f 165/2/2 162/2/2 166/2/2
f 163/2/2 164/2/2 167/2/2
f 167/2/2 164/2/2 168/2/2
f 171/2/2 172/2/2 173/2/2
f 173/2/2 172/2/2 174/2/2
f 169/2/2 170/2/2 177/2/2
f 177/2/2 170/2/2 178/2/2
f 175/2/2 176/2/2 179/2/2
f 179/2/2 176/2/2 180/2/2
f 181/2/2 182/2/2 185/2/2
f 185/2/2 182/2/2 186/2/2
f 183/2/2 184/2/2 187/2/2
f 187/2/2 184/2/2 188/2/2
f 189/2/2 190/2/2 193/2/2
f 193/2/2 190/2/2 194/2/2
f 191/2/2 192/2/2 195/2/2
f 195/2/2 192/2/2 196/2/2
f 199/2/2 200/2/2 201/2/2
f 201/2/2 200/2/2 202/2/2
f 197/2/2 198/2/2 203/2/2
f 203/2/2 198/2/2 204/2/2
f 205/2/2 206/2/2 207/2/2
f 207/2/2 206/2/2 208/2/2
f 209/2/2 210/2/2 213/2/2
f 213/2/2 210/2/2 214/2/2
f 211/2/2 212/2/2 215/2/2
f 215/2/2 212/2/2 216/2/2
f 217/2/2 218/2/2 219/2/2
f 219/2/2 218/2/2 220/2/2
f 221/2/2 222/2/2 225/2/2
f 225/2/2 222/2/2 226/2/2
f 223/2/2 224/2/2 227/2/2
f 227/2/2 224/2/2 228/2/2
f 229/2/2 230/2/2 231/2/2
f 231/2/2 230/2/2 232/2/2
f 233/2/2 234/2/2 237/2/2
f 237/2/2 234/2/2 238/2/2
f 235/2/2 236/2/2 239/2/2
f 239/2/2 236/2/2 240/2/2
f 241/2/2 242/2/2 245/2/2
f 245/2/2 242/2/2 246/2/2
f 243/2/2 244/2/2 247/2/2
f 247/2/2 244/2/2 248/2/2
f 249/1/2 250/1/2 255/1/2
f 255/1/2 250/1/2 256/1/2
f 251/1/2 252/1/2 257/1/2
f 257/1/2 252/1/2 258/1/2
f 259/1/2 260/1/2 263/1/2
f 263/1/2 260/1/2 264/1/2
f 261/1/2 262/1/2 265/1/2
f 265/1/2 262/1/2 266/1/2
f 267/1/2 268/1/2 271/1/2
f 271/1/2 268/1/2 272/1/2
f 269/1/2 270/1/2 273/1/2
f 273/1/2 270/1/2 274/1/2
f 253/1/2 254/1/2 275/1/2
f 275/1/2 254/1/2 276/1/2
f 277/2/2 278/2/2 279/2/2
f 279/2/2 278/2/2 280/2/2
f 280/2/2 278/2/2 281/2/2
f 281/2/2 278/2/2 282/2/2
f 282/2/2 278/2/2 283/2/2
f 283/2/2 278/2/2 284/2/2
f 277/2/2 279/2/2 285/2/2
f 280/2/2 281/2/2 286/2/2
f 286/2/2 281/2/2 287/2/2
f 282/2/2 283/2/2 288/2/2
f 286/2/2 287/2/2 289/2/2
f 287/2/2 288/2/2 289/2/2
f 277/2/2 285/2/2 289/2/2
f 285/2/2 286/2/2 289/2/2
f 289/2/2 288/2/2 290/2/2
f 290/2/2 288/2/2 291/2/2
f 288/2/2 283/2/2 292/2/2
f 291/2/2 288/2/2 292/2/2
f 277/2/2 289/2/2 293/2/2
f 290/2/2 291/2/2 294/2/2
f 294/2/2 291/2/2 295/2/2
f 292/2/2 283/2/2 296/2/2
f 277/2/2 293/2/2 297/2/2
f 295/2/2 296/2/2 297/2/2
f 294/2/2 295/2/2 297/2/2
f 293/2/2 294/2/2 297/2/2
f 297/2/2 296/2/2 298/2/2
f 298/2/2 296/2/2 299/2/2
f 296/2/2 283/2/2 300/2/2
f 299/2/2 296/2/2 300/2/2
f 277/2/2 297/2/2 301/2/2
f 298/2/2 299/2/2 302/2/2
f 302/2/2 299/2/2 303/2/2
f 300/2/2 283/2/2 304/2/2
f 304/2/2 283/2/2 305/2/2
f 284/2/2 278/2/2 306/2/2
f 304/2/2 305/2/2 307/2/2
f 305/2/2 306/2/2 307/2/2
f 277/2/2 301/2/2 307/2/2
f 302/2/2 303/2/2 307/2/2
f 303/2/2 304/2/2 307/2/2
f 301/2/2 302/2/2 307/2/2
f 306/2/2 278/2/2 308/2/2
f 307/2/2 306/2/2 308/2/2
f 311/2/3 310/2/3 309/2/3
f 312/2/3 310/2/3 311/2/3
f 313/2/3 310/2/3 312/2/3
f 314/2/3 310/2/3 313/2/3
f 315/2/3 311/2/3 309/2/3
f 316/2/3 313/2/3 312/2/3
f 317/2/3 313/2/3 316/2/3
f 319/2/3 315/2/3 309/2/3
f 319/2/3 318/2/3 317/2/3
f 319/2/3 317/2/3 316/2/3
f 319/2/3 316/2/3 315/2/3
f 320/2/3 318/2/3 319/2/3
f 321/2/3 319/2/3 309/2/3
f 322/2/3 318/2/3 320/2/3
f 323/2/3 318/2/3 322/2/3
f 324/2/3 310/2/3 314/2/3
f 325/2/3 323/2/3 322/2/3
f 325/2/3 324/2/3 323/2/3
f 325/2/3 321/2/3 309/2/3
f 325/2/3 322/2/3 321/2/3
f 326/2/3 324/2/3 325/2/3
f 327/2/3 324/2/3 326/2/3
f 328/2/3 324/2/3 327/2/3
f 329/2/3 324/2/3 328/2/3
f 330/2/3 310/2/3 324/2/3
f 330/2/3 324/2/3 329/2/3
f 331/2/3 325/2/3 309/2/3
f 332/2/3 327/2/3 326/2/3
f 333/2/3 327/2/3 332/2/3
f 334/2/3 329/2/3 328/2/3
f 335/2/3 329/2/3 334/2/3
f 336/2/3 310/2/3 330/2/3
f 337/2/3 333/2/3 332/2/3
f 337/2/3 336/2/3 335/2/3
f 337/2/3 335/2/3 334/2/3
f 337/2/3 331/2/3 309/2/3
f 337/2/3 334/2/3 333/2/3
f 337/2/3 332/2/3 331/2/3
f 338/2/3 310/2/3 336/2/3
f 338/2/3 336/2/3 337/2/3
f 343/1/3 340/1/3 339/1/3
f 344/1/3 340/1/3 343/1/3
f 345/1/3 342/1/3 341/1/3
f 346/1/3 342/1/3 345/1/3
f 349/1/3 348/1/3 347/1/3
f 350/1/3 348/1/3 349/1/3
f 351/1/3 342/1/3 346/1/3
f 352/1/3 342/1/3 351/1/3
f 359/1/3 354/1/3 353/1/3
f 360/1/3 354/1/3 359/1/3
f 361/1/3 356/1/3 355/1/3
f 362/1/3 356/1/3 361/1/3
f 363/1/3 358/1/3 357/1/3
f 364/1/3 358/1/3 363/1/3
f 369/2/3 366/2/3 365/2/3
f 370/2/3 366/2/3 369/2/3
f 371/2/3 368/2/3 367/2/3
f 372/2/3 368/2/3 371/2/3
f 377/2/3 376/2/3 375/2/3
f 378/2/3 376/2/3 377/2/3
f 379/2/3 374/2/3 373/2/3
f 380/2/3 374/2/3 379/2/3
f 383/2/3 382/2/3 381/2/3
f 384/2/3 382/2/3 383/2/3
f 391/2/3 386/2/3 385/2/3
f 392/2/3 386/2/3 391/2/3
f 393/2/3 388/2/3 387/2/3
f 394/2/3 388/2/3 393/2/3
f 395/2/3 390/2/3 389/2/3
f 396/2/3 390/2/3 395/2/3
f 401/2/3 398/2/3 397/2/3
f 402/2/3 398/2/3 401/2/3
f 403/2/3 400/2/3 399/2/3
f 404/2/3 400/2/3 403/2/3
f 409/2/3 406/2/3 405/2/3
f 410/2/3 406/2/3 409/2/3
f 411/2/3 408/2/3 407/2/3
f 412/2/3 408/2/3 411/2/3
f 415/2/3 414/2/3 413/2/3
f 416/2/3 414/2/3 415/2/3
f 423/2/3 418/2/3 417/2/3
f 424/2/3 418/2/3 423/2/3
f 425/2/3 420/2/3 419/2/3
f 426/2/3 420/2/3 425/2/3
f 427/2/3 422/2/3 421/2/3
f 428/2/3 422/2/3 427/2/3
f 433/2/3 430/2/3 429/2/3
f 434/2/3 430/2/3 433/2/3
f 435/2/3 432/2/3 431/2/3
f 436/2/3 432/2/3 435/2/3
f 441/2/3 438/2/3 437/2/3
f 442/2/3 438/2/3 441/2/3
f 443/2/3 440/2/3 439/2/3
f 444/2/3 440/2/3 443/2/3
f 449/2/3 446/2/3 445/2/3
f 450/2/3 446/2/3 449/2/3
f 451/2/3 448/2/3 447/2/3
f 452/2/3 448/2/3 451/2/3
f 455/2/3 454/2/3 453/2/3
f 456/2/3 454/2/3 455/2/3
f 457/2/4 458/2/4 463/2/4
f 463/2/4 458/2/4 464/2/4
f 459/2/4 460/2/4 465/2/4
f 465/2/4 460/2/4 466/2/4
f 461/2/4 462/2/4 467/2/4
f 467/2/4 462/2/4 468/2/4
f 471/2/4 472/2/4 473/2/4
f 473/2/4 472/2/4 474/2/4
f 469/2/4 470/2/4 477/2/4
f 477/2/4 470/2/4 478/2/4
f 475/2/4 476/2/4 479/2/4
f 479/2/4 476/2/4 480/2/4
f 481/2/4 482/2/4 485/2/4
f 485/2/4 482/2/4 486/2/4
f 483/2/4 484/2/4 487/2/4
f 487/2/4 484/2/4 488/2/4
f 489/2/4 490/2/4 495/2/4
f 495/2/4 490/2/4 496/2/4
f 491/2/4 492/2/4 497/2/4
f 497/2/4 492/2/4 498/2/4
f 493/2/4 494/2/4 499/2/4
f 499/2/4 494/2/4 500/2/4
f 501/2/4 502/2/4 505/2/4
f 505/2/4 502/2/4 506/2/4
f 503/2/4 504/2/4 507/2/4
f 507/2/4 504/2/4 508/2/4
f 509/2/4 510/2/4 513/2/4
f 513/2/4 510/2/4 514/2/4
f 511/2/4 512/2/4 515/2/4
f 515/2/4 512/2/4 516/2/4
f 517/2/4 518/2/4 519/2/4
f 519/2/4 518/2/4 520/2/4
f 521/2/4 522/2/4 523/2/4
f 523/2/4 522/2/4 524/2/4
f 525/2/4 526/2/4 531/2/4
f 531/2/4 526/2/4 532/2/4
f 527/2/4 528/2/4 533/2/4
f 533/2/4 528/2/4 534/2/4
f 529/2/4 530/2/4 535/2/4
f 535/2/4 530/2/4 536/2/4
f 537/2/4 538/2/4 541/2/4
f 541/2/4 538/2/4 542/2/4
f 539/2/4 540/2/4 543/2/4
f 543/2/4 540/2/4 544/2/4
f 547/2/4 548/2/4 549/2/4
f 549/2/4 548/2/4 550/2/4
f 545/2/4 546/2/4 551/2/4
f 551/2/4 546/2/4 552/2/4
f 553/2/4 554/2/4 555/2/4
f 555/2/4 554/2/4 556/2/4
f 557/1/4 558/1/4 563/1/4
f 563/1/4 558/1/4 564/1/4
f 561/1/4 562/1/4 565/1/4
f 565/1/4 562/1/4 566/1/4
f 567/1/4 568/1/4 571/1/4
f 571/1/4 568/1/4 572/1/4
f 569/1/4 570/1/4 573/1/4
f 573/1/4 570/1/4 574/1/4
f 575/1/4 576/1/4 579/1/4
f 579/1/4 576/1/4 580/1/4
f 559/1/4 560/1/4 581/1/4
f 581/1/4 560/1/4 582/1/4
f 577/1/4 578/1/4 583/1/4
f 583/1/4 578/1/4 584/1/4
f 585/2/4 586/2/4 587/2/4
f 587/2/4 586/2/4 588/2/4
f 588/2/4 586/2/4 589/2/4
f 589/2/4 586/2/4 590/2/4
f 590/2/4 586/2/4 591/2/4
f 591/2/4 586/2/4 592/2/4
f 585/2/4 587/2/4 593/2/4
f 588/2/4 589/2/4 594/2/4
f 590/2/4 591/2/4 595/2/4
f 592/2/4 586/2/4 596/2/4
f 593/2/4 594/2/4 597/2/4
f 585/2/4 593/2/4 597/2/4
f 594/2/4 589/2/4 598/2/4
f 597/2/4 594/2/4 598/2/4
f 590/2/4 595/2/4 599/2/4
f 595/2/4 596/2/4 599/2/4
f 596/2/4 586/2/4 600/2/4
f 599/2/4 596/2/4 600/2/4
f 585/2/4 597/2/4 601/2/4
f 598/2/4 589/2/4 602/2/4
f 590/2/4 599/2/4 603/2/4
f 600/2/4 586/2/4 604/2/4
f 585/2/4 601/2/4 605/2/4
f 601/2/4 602/2/4 605/2/4
f 602/2/4 589/2/4 606/2/4
f 605/2/4 602/2/4 606/2/4
f 603/2/4 604/2/4 607/2/4
f 590/2/4 603/2/4 607/2/4
f 604/2/4 586/2/4 608/2/4
f 607/2/4 604/2/4 608/2/4
f 585/2/4 605/2/4 609/2/4
f 606/2/4 589/2/4 610/2/4
f 610/2/4 589/2/4 611/2/4
f 590/2/4 607/2/4 612/2/4
f 612/2/4 607/2/4 613/2/4
f 608/2/4 586/2/4 614/2/4
f 585/2/4 609/2/4 615/2/4
f 613/2/4 614/2/4 615/2/4
f 612/2/4 613/2/4 615/2/4
f 610/2/4 611/2/4 615/2/4
f 611/2/4 612/2/4 615/2/4
f 609/2/4 610/2/4 615/2/4
f 614/2/4 586/2/4 616/2/4
f 615/2/4 614/2/4 616/2/4
f 619/2/5 618/2/5 617/2/5
f 620/2/5 618/2/5 619/2/5
f 621/2/5 618/2/5 620/2/5
f 622/2/5 618/2/5 621/2/5
f 623/2/5 619/2/5 617/2/5
f 624/2/5 621/2/5 620/2/5
f 625/2/5 623/2/5 617/2/5
f 625/2/5 624/2/5 623/2/5
f 626/2/5 624/2/5 625/2/5
f 627/2/5 624/2/5 626/2/5
f 628/2/5 621/2/5 624/2/5
f 628/2/5 624/2/5 627/2/5
f 629/2/5 627/2/5 626/2/5
f 630/2/5 621/2/5 628/2/5
f 631/2/5 621/2/5 630/2/5
f 632/2/5 618/2/5 622/2/5
f 633/2/5 631/2/5 630/2/5
f 633/2/5 632/2/5 631/2/5
f 633/2/5 629/2/5 626/2/5
f 633/2/5 630/2/5 629/2/5
f 634/2/5 618/2/5 632/2/5
f 634/2/5 632/2/5 633/2/5
f 635/2/5 625/2/5 617/2/5
f 636/2/5 633/2/5 626/2/5
f 637/2/5 633/2/5 636/2/5
f 638/2/5 618/2/5 634/2/5
f 639/2/5 635/2/5 617/2/5
f 639/2/5 638/2/5 637/2/5
f 639/2/5 637/2/5 636/2/5
f 639/2/5 636/2/5 635/2/5
f 640/2/5 618/2/5 638/2/5
f 640/2/5 638/2/5 639/2/5
f 645/1/5 642/1/5 641/1/5
f 646/1/5 642/1/5 645/1/5
f 651/1/5 650/1/5 649/1/5
f 652/1/5 650/1/5 651/1/5
f 653/1/5 644/1/5 643/1/5
f 654/1/5 644/1/5 653/1/5
f 657/1/5 648/1/5 647/1/5
f 658/1/5 648/1/5 657/1/5
f 659/1/5 656/1/5 655/1/5
f 660/1/5 656/1/5 659/1/5
f 665/2/5 662/2/5 661/2/5
f 666/2/5 662/2/5 665/2/5
f 667/2/5 664/2/5 663/2/5
f 668/2/5 664/2/5 667/2/5
f 673/2/5 670/2/5 669/2/5
f 674/2/5 670/2/5 673/2/5
f 675/2/5 672/2/5 671/2/5
f 676/2/5 672/2/5 675/2/5
f 681/2/5 678/2/5 677/2/5
f 682/2/5 678/2/5 681/2/5
f 683/2/5 680/2/5 679/2/5
f 684/2/5 680/2/5 683/2/5
f 691/2/5 686/2/5 685/2/5
f 692/2/5 686/2/5 691/2/5
f 693/2/5 688/2/5 687/2/5
f 694/2/5 688/2/5 693/2/5
f 695/2/5 690/2/5 689/2/5
f 696/2/5 690/2/5 695/2/5
f 701/2/5 698/2/5 697/2/5
f 702/2/5 698/2/5 701/2/5
f 703/2/5 700/2/5 699/2/5
f 704/2/5 700/2/5 703/2/5
f 709/2/5 708/2/5 707/2/5
f 710/2/5 708/2/5 709/2/5
f 711/2/5 706/2/5 705/2/5
f 712/2/5 706/2/5 711/2/5
f 715/2/5 714/2/5 713/2/5
f 716/2/5 714/2/5 715/2/5
f 719/2/5 718/2/5 717/2/5
f 720/2/5 718/2/5 719/2/5
f 723/2/5 722/2/5 721/2/5
f 724/2/5 722/2/5 723/2/5
f 729/2/5 726/2/5 725/2/5
f 730/2/5 726/2/5 729/2/5
f 731/2/5 728/2/5 727/2/5
f 732/2/5 728/2/5 731/2/5
f 737/2/5 734/2/5 733/2/5
f 738/2/5 734/2/5 737/2/5
f 739/2/5 736/2/5 735/2/5
f 740/2/5 736/2/5 739/2/5
f 745/2/5 742/2/5 741/2/5
f 746/2/5 742/2/5 745/2/5
f 747/2/5 744/2/5 743/2/5
f 748/2/5 744/2/5 747/2/5
f 753/2/5 750/2/5 749/2/5
f 754/2/5 750/2/5 753/2/5
f 755/2/5 752/2/5 751/2/5
f 756/2/5 752/2/5 755/2/5
f 763/2/5 758/2/5 757/2/5
f 764/2/5 758/2/5 763/2/5
f 765/2/5 760/2/5 759/2/5
f 766/2/5 760/2/5 765/2/5
f 767/2/5 762/2/5 761/2/5
f 768/2/5 762/2/5 767/2/5
f 769/2/6 770/2/6 775/2/6
f 775/2/6 770/2/6 776/2/6
f 771/2/6 772/2/6 777/2/6
f 777/2/6 772/2/6 778/2/6
f 773/2/6 774/2/6 779/2/6
f 779/2/6 774/2/6 780/2/6
f 781/2/6 782/2/6 785/2/6
f 785/2/6 782/2/6 786/2/6
f 783/2/6 784/2/6 787/2/6
f 787/2/6 784/2/6 788/2/6
f 789/2/6 790/2/6 793/2/6
f 793/2/6 790/2/6 794/2/6
f 791/2/6 792/2/6 795/2/6
f 795/2/6 792/2/6 796/2/6
f 797/2/6 798/2/6 801/2/6
f 801/2/6 798/2/6 802/2/6
f 799/2/6 800/2/6 803/2/6
f 803/2/6 800/2/6 804/2/6
f 805/2/6 806/2/6 811/2/6
f 811/2/6 806/2/6 812/2/6
f 807/2/6 808/2/6 813/2/6
f 813/2/6 808/2/6 814/2/6
f 809/2/6 810/2/6 815/2/6
f 815/2/6 810/2/6 816/2/6
f 817/2/6 818/2/6 821/2/6
f 821/2/6 818/2/6 822/2/6
f 819/2/6 820/2/6 823/2/6
f 823/2/6 820/2/6 824/2/6
f 827/2/6 828/2/6 829/2/6
f 829/2/6 828/2/6 830/2/6
f 825/2/6 826/2/6 833/2/6
f 833/2/6 826/2/6 834/2/6
f 831/2/6 832/2/6 835/2/6
f 835/2/6 832/2/6 836/2/6
f 837/2/6 838/2/6 839/2/6
f 839/2/6 838/2/6 840/2/6
f 841/2/6 842/2/6 845/2/6
f 845/2/6 842/2/6 846/2/6
f 843/2/6 844/2/6 847/2/6
f 847/2/6 844/2/6 848/2/6
f 849/2/6 850/2/6 853/2/6
f 853/2/6 850/2/6 854/2/6
f 851/2/6 852/2/6 855/2/6
f 855/2/6 852/2/6 856/2/6
f 857/2/6 858/2/6 859/2/6
f 859/2/6 858/2/6 860/2/6
f 861/2/6 862/2/6 863/2/6
f 863/2/6 862/2/6 864/2/6
f 865/2/6 866/2/6 871/2/6
f 871/2/6 866/2/6 872/2/6
f 867/2/6 868/2/6 873/2/6
f 873/2/6 868/2/6 874/2/6
f 869/2/6 870/2/6 875/2/6
f 875/2/6 870/2/6 876/2/6
f 877/1/6 878/1/6 883/1/6
f 883/1/6 878/1/6 884/1/6
f 881/1/6 882/1/6 885/1/6
f 885/1/6 882/1/6 886/1/6
f 879/1/6 880/1/6 891/1/6
f 891/1/6 880/1/6 892/1/6
f 889/1/6 890/1/6 894/1/6
f 887/1/6 888/1/6 895/1/6
f 895/1/6 888/1/6 896/1/6
f 893/1/6 894/1/6 897/1/6
f 894/1/6 890/1/6 898/1/6
f 897/1/6 894/1/6 898/1/6
f 899/2/6 900/2/6 901/2/6
f 901/2/6 900/2/6 902/2/6
f 902/2/6 900/2/6 903/2/6
f 903/2/6 900/2/6 904/2/6
f 904/2/6 900/2/6 905/2/6
f 905/2/6 900/2/6 906/2/6
f 899/2/6 901/2/6 907/2/6
f 902/2/6 903/2/6 908/2/6
f 904/2/6 905/2/6 909/2/6
f 906/2/6 900/2/6 910/2/6
f 907/2/6 908/2/6 911/2/6
f 899/2/6 907/2/6 911/2/6
f 908/2/6 903/2/6 912/2/6
f 911/2/6 908/2/6 912/2/6
f 904/2/6 909/2/6 913/2/6
f 909/2/6 910/2/6 913/2/6
f 910/2/6 900/2/6 914/2/6
f 913/2/6 910/2/6 914/2/6
f 912/2/6 903/2/6 915/2/6
f 904/2/6 913/2/6 916/2/6
f 912/2/6 915/2/6 917/2/6
f 915/2/6 916/2/6 917/2/6
f 916/2/6 913/2/6 918/2/6
f 917/2/6 916/2/6 918/2/6
f 899/2/6 911/2/6 919/2/6
f 912/2/6 917/2/6 920/2/6
f 920/2/6 917/2/6 921/2/6
f 914/2/6 900/2/6 922/2/6
f 920/2/6 921/2/6 923/2/6
f 921/2/6 922/2/6 923/2/6
f 899/2/6 919/2/6 923/2/6
f 919/2/6 920/2/6 923/2/6
f 922/2/6 900/2/6 924/2/6
f 923/2/6 922/2/6 924/2/6
