# MagicaVoxel @ Ephtracy

# material
mtllib tt-stone-face.mtl
usemtl palette

# normals
vn -1 0 0
vn 1 0 0
vn 0 0 1
vn 0 0 -1
vn 0 -1 0
vn 0 1 0

# texcoords
vt 0.974609 0.5
vt 0.982422 0.5

# verts
v -8 1 7
v -8 1 -8
v -8 3 1
v -8 3 -0
v -8 5 5
v -8 5 4
v -8 6 2
v -8 6 1
v -8 7 1
v -8 7 -0
v -8 8 7
v -8 8 6
v -8 8 4
v -8 8 2
v -8 8 1
v -8 8 -0
v -8 9 5
v -8 9 4
v -8 9 3
v -8 9 1
v -8 10 4
v -8 10 3
v -8 11 1
v -8 11 -0
v -8 13 8
v -8 13 6
v -8 14 8
v -8 14 7
v -8 14 -7
v -8 14 -8
v -8 15 7
v -8 15 -7
v -7 0 6
v -7 0 -7
v -7 1 6
v -7 1 -7
v -7 14 8
v -7 14 7
v -7 14 -7
v -7 14 -8
v -7 15 8
v -7 15 7
v -7 15 6
v -7 15 -6
v -7 15 -7
v -7 15 -8
v -7 16 6
v -7 16 -6
v -6 0 7
v -6 0 6
v -6 1 8
v -6 1 7
v -6 1 6
v -6 4 8
v -6 4 7
v -6 15 7
v -6 15 6
v -6 15 -6
v -6 15 -7
v -6 16 7
v -6 16 6
v -6 16 -6
v -6 16 -7
v -5 4 8
v -5 4 7
v -5 5 8
v -5 5 7
v -3 6 8
v -3 6 7
v -3 8 8
v -3 8 7
v -3 9 6
v -3 9 5
v -3 12 6
v -3 12 5
v -2 8 8
v -2 8 6
v -2 13 8
v -2 13 6
v 4 2 8
v 4 2 6
v 4 4 8
v 4 4 6
v 7 9 6
v 7 9 5
v 7 12 6
v 7 12 5
v -7 9 6
v -7 9 5
v -7 12 6
v -7 12 5
v -4 2 8
v -4 2 6
v -4 4 8
v -4 4 6
v 2 8 8
v 2 8 6
v 2 13 8
v 2 13 6
v 3 6 8
v 3 6 7
v 3 8 8
v 3 8 7
v 3 9 6
v 3 9 5
v 3 12 6
v 3 12 5
v 5 4 8
v 5 4 7
v 5 5 8
v 5 5 7
v 6 0 7
v 6 0 6
v 6 1 8
v 6 1 7
v 6 1 6
v 6 4 8
v 6 4 7
v 6 15 7
v 6 15 6
v 6 15 -6
v 6 15 -7
v 6 16 7
v 6 16 6
v 6 16 -6
v 6 16 -7
v 7 0 6
v 7 0 -7
v 7 1 6
v 7 1 -7
v 7 14 8
v 7 14 7
v 7 14 -7
v 7 14 -8
v 7 15 8
v 7 15 7
v 7 15 6
v 7 15 -6
v 7 15 -7
v 7 15 -8
v 7 16 6
v 7 16 -6
v 8 1 7
v 8 1 -8
v 8 2 -4
v 8 2 -5
v 8 3 3
v 8 3 2
v 8 3 -3
v 8 3 -4
v 8 3 -5
v 8 3 -6
v 8 4 7
v 8 4 6
v 8 4 -2
v 8 4 -3
v 8 4 -4
v 8 4 -6
v 8 5 7
v 8 5 6
v 8 5 1
v 8 5 -0
v 8 5 -3
v 8 5 -4
v 8 6 -2
v 8 6 -3
v 8 7 -4
v 8 7 -5
v 8 8 7
v 8 8 6
v 8 8 2
v 8 8 1
v 8 8 -0
v 8 8 -2
v 8 9 3
v 8 9 -1
v 8 10 5
v 8 10 1
v 8 10 -2
v 8 10 -4
v 8 11 5
v 8 11 3
v 8 11 1
v 8 11 -1
v 8 11 -2
v 8 11 -5
v 8 12 3
v 8 12 -1
v 8 13 8
v 8 13 6
v 8 13 -1
v 8 13 -2
v 8 14 8
v 8 14 7
v 8 14 -7
v 8 14 -8
v 8 15 7
v 8 15 -7
v -8 13 8
v -8 14 8
v -7 14 8
v -7 15 8
v -6 1 8
v -6 4 8
v -5 4 8
v -5 5 8
v -4 2 8
v -4 4 8
v -3 6 8
v -3 8 8
v -2 8 8
v -2 13 8
v -2 14 8
v -2 15 8
v -1 12 8
v -1 14 8
v 0 10 8
v 0 12 8
v 0 13 8
v 0 15 8
v 1 10 8
v 1 13 8
v 2 8 8
v 2 13 8
v 3 6 8
v 3 8 8
v 4 2 8
v 4 4 8
v 5 4 8
v 5 5 8
v 6 1 8
v 6 4 8
v 7 14 8
v 7 15 8
v 8 13 8
v 8 14 8
v -8 1 7
v -8 8 7
v -8 14 7
v -8 15 7
v -7 14 7
v -7 15 7
v -6 0 7
v -6 1 7
v -6 4 7
v -6 5 7
v -6 7 7
v -6 15 7
v -6 16 7
v -5 4 7
v -5 5 7
v -5 6 7
v -5 7 7
v -5 8 7
v -4 6 7
v -4 8 7
v -3 6 7
v -3 8 7
v -2 15 7
v 0 15 7
v 3 6 7
v 3 8 7
v 5 4 7
v 5 5 7
v 5 7 7
v 6 0 7
v 6 1 7
v 6 4 7
v 6 5 7
v 6 6 7
v 6 7 7
v 6 15 7
v 6 16 7
v 7 5 7
v 7 6 7
v 7 14 7
v 7 15 7
v 8 1 7
v 8 4 7
v 8 5 7
v 8 8 7
v 8 14 7
v 8 15 7
v -8 8 6
v -8 13 6
v -7 0 6
v -7 1 6
v -7 9 6
v -7 12 6
v -7 15 6
v -7 16 6
v -6 0 6
v -6 1 6
v -6 15 6
v -6 16 6
v -5 8 6
v -4 2 6
v -4 4 6
v -4 8 6
v -3 9 6
v -3 12 6
v -2 8 6
v -2 13 6
v 2 8 6
v 2 13 6
v 3 9 6
v 3 12 6
v 4 2 6
v 4 4 6
v 6 0 6
v 6 1 6
v 6 15 6
v 6 16 6
v 7 0 6
v 7 1 6
v 7 9 6
v 7 12 6
v 7 15 6
v 7 16 6
v 8 8 6
v 8 13 6
v -7 9 5
v -7 12 5
v -3 9 5
v -3 12 5
v 3 9 5
v 3 12 5
v 7 9 5
v 7 12 5
v -7 15 -6
v -7 16 -6
v -6 15 -6
v -6 16 -6
v 6 15 -6
v 6 16 -6
v 7 15 -6
v 7 16 -6
v -8 14 -7
v -8 15 -7
v -7 0 -7
v -7 1 -7
v -7 14 -7
v -7 15 -7
v -6 15 -7
v -6 16 -7
v 6 15 -7
v 6 16 -7
v 7 0 -7
v 7 1 -7
v 7 14 -7
v 7 15 -7
v 8 14 -7
v 8 15 -7
v -8 1 -8
v -8 14 -8
v -7 14 -8
v -7 15 -8
v -5 5 -8
v -5 8 -8
v -4 5 -8
v -4 7 -8
v -4 8 -8
v -4 9 -8
v -3 7 -8
v -3 8 -8
v -3 9 -8
v -3 10 -8
v -2 8 -8
v -2 9 -8
v -2 10 -8
v -2 12 -8
v -1 5 -8
v -1 7 -8
v -1 10 -8
v -1 12 -8
v 0 5 -8
v 0 6 -8
v 0 7 -8
v 0 9 -8
v 0 11 -8
v 0 14 -8
v 1 6 -8
v 1 9 -8
v 1 12 -8
v 1 14 -8
v 3 6 -8
v 3 9 -8
v 3 10 -8
v 3 11 -8
v 3 12 -8
v 3 13 -8
v 4 6 -8
v 4 7 -8
v 4 8 -8
v 4 13 -8
v 5 5 -8
v 5 7 -8
v 6 5 -8
v 6 8 -8
v 7 14 -8
v 7 15 -8
v 8 1 -8
v 8 14 -8
v -6 0 7
v 6 0 7
v -7 0 6
v -6 0 6
v 6 0 6
v 7 0 6
v -7 0 -7
v 7 0 -7
v -6 1 8
v 6 1 8
v -8 1 7
v -6 1 7
v 6 1 7
v 8 1 7
v -7 1 6
v -6 1 6
v 6 1 6
v 7 1 6
v -7 1 -7
v 7 1 -7
v -8 1 -8
v 8 1 -8
v -4 4 8
v 4 4 8
v -4 4 6
v 4 4 6
v -3 6 8
v 3 6 8
v -3 6 7
v 3 6 7
v -7 12 6
v -3 12 6
v 3 12 6
v 7 12 6
v -7 12 5
v -3 12 5
v 3 12 5
v 7 12 5
v -8 13 8
v -2 13 8
v 2 13 8
v 8 13 8
v -8 13 6
v -2 13 6
v 2 13 6
v 8 13 6
v -4 2 8
v 4 2 8
v -4 2 6
v 4 2 6
v -6 4 8
v -5 4 8
v 5 4 8
v 6 4 8
v -6 4 7
v -5 4 7
v 5 4 7
v 6 4 7
v -5 5 8
v 5 5 8
v -5 5 7
v 5 5 7
v -3 8 8
v -2 8 8
v 2 8 8
v 3 8 8
v -8 8 7
v -5 8 7
v -4 8 7
v -3 8 7
v 3 8 7
v 8 8 7
v -8 8 6
v -5 8 6
v -4 8 6
v -2 8 6
v 2 8 6
v 8 8 6
v -7 9 6
v -3 9 6
v 3 9 6
v 7 9 6
v -7 9 5
v -3 9 5
v 3 9 5
v 7 9 5
v -8 14 8
v -7 14 8
v 7 14 8
v 8 14 8
v -8 14 7
v -7 14 7
v 7 14 7
v 8 14 7
v -8 14 -7
v -7 14 -7
v 7 14 -7
v 8 14 -7
v -8 14 -8
v -7 14 -8
v 7 14 -8
v 8 14 -8
v -7 15 8
v -2 15 8
v 0 15 8
v 7 15 8
v -8 15 7
v -7 15 7
v -6 15 7
v -2 15 7
v 0 15 7
v 6 15 7
v 7 15 7
v 8 15 7
v -7 15 6
v -6 15 6
v 6 15 6
v 7 15 6
v -7 15 -6
v -6 15 -6
v 6 15 -6
v 7 15 -6
v -8 15 -7
v -7 15 -7
v -6 15 -7
v 6 15 -7
v 7 15 -7
v 8 15 -7
v -7 15 -8
v 7 15 -8
v -6 16 7
v 6 16 7
v -7 16 6
v -6 16 6
v 6 16 6
v 7 16 6
v -7 16 -6
v -6 16 -6
v 6 16 -6
v 7 16 -6
v -6 16 -7
v 6 16 -7

# faces
f 3/1/1 2/1/1 1/1/1
f 4/1/1 2/1/1 3/1/1
f 5/1/1 3/1/1 1/1/1
f 6/1/1 3/1/1 5/1/1
f 7/1/1 3/1/1 6/1/1
f 8/2/1 4/2/1 3/2/1
f 8/1/1 3/1/1 7/1/1
f 9/2/1 8/2/1 7/2/1
f 9/2/1 4/2/1 8/2/1
f 10/1/1 2/1/1 4/1/1
f 10/2/1 4/2/1 9/2/1
f 11/1/1 5/1/1 1/1/1
f 12/1/1 5/1/1 11/1/1
f 13/1/1 7/1/1 6/1/1
f 13/2/1 6/2/1 5/2/1
f 14/2/1 9/2/1 7/2/1
f 14/1/1 7/1/1 13/1/1
f 15/1/1 10/1/1 9/1/1
f 15/2/1 9/2/1 14/2/1
f 16/1/1 2/1/1 10/1/1
f 16/1/1 10/1/1 15/1/1
f 17/2/1 13/2/1 5/2/1
f 17/1/1 5/1/1 12/1/1
f 17/2/1 16/2/1 15/2/1
f 17/2/1 15/2/1 14/2/1
f 17/2/1 14/2/1 13/2/1
f 18/2/1 16/2/1 17/2/1
f 19/2/1 16/2/1 18/2/1
f 20/2/1 16/2/1 19/2/1
f 21/1/1 18/1/1 17/1/1
f 21/2/1 19/2/1 18/2/1
f 22/1/1 20/1/1 19/1/1
f 22/2/1 19/2/1 21/2/1
f 23/2/1 16/2/1 20/2/1
f 23/1/1 20/1/1 22/1/1
f 23/1/1 22/1/1 21/1/1
f 24/1/1 2/1/1 16/1/1
f 24/2/1 16/2/1 23/2/1
f 26/1/1 23/1/1 21/1/1
f 26/1/1 17/1/1 12/1/1
f 26/1/1 24/1/1 23/1/1
f 26/1/1 21/1/1 17/1/1
f 27/1/1 26/1/1 25/1/1
f 28/1/1 26/1/1 27/1/1
f 29/1/1 2/1/1 24/1/1
f 29/1/1 26/1/1 28/1/1
f 29/1/1 24/1/1 26/1/1
f 30/1/1 2/1/1 29/1/1
f 31/1/1 29/1/1 28/1/1
f 32/1/1 29/1/1 31/1/1
f 35/1/1 34/1/1 33/1/1
f 36/1/1 34/1/1 35/1/1
f 41/1/1 38/1/1 37/1/1
f 42/1/1 38/1/1 41/1/1
f 45/1/1 40/1/1 39/1/1
f 46/1/1 40/1/1 45/1/1
f 47/1/1 44/1/1 43/1/1
f 48/1/1 44/1/1 47/1/1
f 52/1/1 50/1/1 49/1/1
f 53/1/1 50/1/1 52/1/1
f 54/1/1 52/1/1 51/1/1
f 55/1/1 52/1/1 54/1/1
f 60/1/1 57/1/1 56/1/1
f 61/1/1 57/1/1 60/1/1
f 62/1/1 59/1/1 58/1/1
f 63/1/1 59/1/1 62/1/1
f 66/1/1 65/1/1 64/1/1
f 67/1/1 65/1/1 66/1/1
f 70/1/1 69/1/1 68/1/1
f 71/1/1 69/1/1 70/1/1
f 74/1/1 73/1/1 72/1/1
f 75/1/1 73/1/1 74/1/1
f 78/1/1 77/1/1 76/1/1
f 79/1/1 77/1/1 78/1/1
f 82/1/1 81/1/1 80/1/1
f 83/1/1 81/1/1 82/1/1
f 86/1/1 85/1/1 84/1/1
f 87/1/1 85/1/1 86/1/1
f 88/1/2 89/1/2 90/1/2
f 90/1/2 89/1/2 91/1/2
f 92/1/2 93/1/2 94/1/2
f 94/1/2 93/1/2 95/1/2
f 96/1/2 97/1/2 98/1/2
f 98/1/2 97/1/2 99/1/2
f 100/1/2 101/1/2 102/1/2
f 102/1/2 101/1/2 103/1/2
f 104/1/2 105/1/2 106/1/2
f 106/1/2 105/1/2 107/1/2
f 108/1/2 109/1/2 110/1/2
f 110/1/2 109/1/2 111/1/2
f 112/1/2 113/1/2 115/1/2
f 115/1/2 113/1/2 116/1/2
f 114/1/2 115/1/2 117/1/2
f 117/1/2 115/1/2 118/1/2
f 119/1/2 120/1/2 123/1/2
f 123/1/2 120/1/2 124/1/2
f 121/1/2 122/1/2 125/1/2
f 125/1/2 122/1/2 126/1/2
f 127/1/2 128/1/2 129/1/2
f 129/1/2 128/1/2 130/1/2
f 131/1/2 132/1/2 135/1/2
f 135/1/2 132/1/2 136/1/2
f 133/1/2 134/1/2 139/1/2
f 139/1/2 134/1/2 140/1/2
f 137/1/2 138/1/2 141/1/2
f 141/1/2 138/1/2 142/1/2
f 143/1/2 144/1/2 145/1/2
f 145/1/2 144/1/2 146/1/2
f 143/1/2 145/1/2 147/1/2
f 147/1/2 145/1/2 148/1/2
f 148/1/2 145/1/2 149/1/2
f 145/2/2 146/2/2 150/2/2
f 149/1/2 145/1/2 150/1/2
f 146/1/2 144/1/2 151/1/2
f 150/2/2 146/2/2 151/2/2
f 151/1/2 144/1/2 152/1/2
f 143/1/2 147/1/2 153/1/2
f 153/1/2 147/1/2 154/1/2
f 148/1/2 149/1/2 155/1/2
f 149/2/2 150/2/2 156/2/2
f 155/1/2 149/1/2 156/1/2
f 150/2/2 151/2/2 156/2/2
f 151/2/2 152/2/2 156/2/2
f 156/2/2 152/2/2 157/2/2
f 152/1/2 144/1/2 158/1/2
f 157/2/2 152/2/2 158/2/2
f 153/2/2 154/2/2 159/2/2
f 154/1/2 147/1/2 160/1/2
f 159/2/2 154/2/2 160/2/2
f 148/1/2 155/1/2 161/1/2
f 161/1/2 155/1/2 162/1/2
f 156/2/2 157/2/2 163/2/2
f 155/2/2 156/2/2 163/2/2
f 157/1/2 158/1/2 164/1/2
f 163/2/2 157/2/2 164/2/2
f 162/1/2 155/1/2 165/1/2
f 155/2/2 163/2/2 165/2/2
f 163/1/2 164/1/2 166/1/2
f 165/2/2 163/2/2 166/2/2
f 164/1/2 158/1/2 167/1/2
f 166/1/2 164/1/2 167/1/2
f 165/1/2 166/1/2 167/1/2
f 167/1/2 158/1/2 168/1/2
f 159/1/2 160/1/2 169/1/2
f 160/1/2 147/1/2 170/1/2
f 169/1/2 160/1/2 170/1/2
f 148/1/2 161/1/2 171/1/2
f 147/2/2 148/2/2 171/2/2
f 161/2/2 162/2/2 172/2/2
f 171/1/2 161/1/2 172/1/2
f 162/1/2 165/1/2 173/1/2
f 172/2/2 162/2/2 173/2/2
f 165/1/2 167/1/2 173/1/2
f 173/1/2 167/1/2 174/1/2
f 170/1/2 147/1/2 175/1/2
f 173/2/2 174/2/2 175/2/2
f 172/2/2 173/2/2 175/2/2
f 147/2/2 171/2/2 175/2/2
f 171/2/2 172/2/2 175/2/2
f 175/2/2 174/2/2 176/2/2
f 170/1/2 175/1/2 177/1/2
f 175/1/2 176/1/2 177/1/2
f 177/1/2 176/1/2 178/1/2
f 174/1/2 167/1/2 179/1/2
f 176/2/2 174/2/2 179/2/2
f 167/2/2 168/2/2 180/2/2
f 179/1/2 167/1/2 180/1/2
f 177/2/2 178/2/2 181/2/2
f 170/1/2 177/1/2 181/1/2
f 181/2/2 178/2/2 182/2/2
f 178/1/2 176/1/2 183/1/2
f 182/2/2 178/2/2 183/2/2
f 176/2/2 179/2/2 184/2/2
f 183/1/2 176/1/2 184/1/2
f 179/2/2 180/2/2 184/2/2
f 184/2/2 180/2/2 185/2/2
f 168/1/2 158/1/2 186/1/2
f 185/2/2 180/2/2 186/2/2
f 180/2/2 168/2/2 186/2/2
f 181/1/2 182/1/2 187/1/2
f 182/2/2 183/2/2 187/2/2
f 184/2/2 185/2/2 187/2/2
f 183/2/2 184/2/2 187/2/2
f 187/2/2 185/2/2 188/2/2
f 170/1/2 181/1/2 190/1/2
f 181/1/2 187/1/2 190/1/2
f 187/1/2 188/1/2 190/1/2
f 188/2/2 185/2/2 191/2/2
f 190/1/2 188/1/2 191/1/2
f 185/1/2 186/1/2 192/1/2
f 191/2/2 185/2/2 192/2/2
f 190/1/2 191/1/2 193/1/2
f 189/1/2 190/1/2 193/1/2
f 191/1/2 192/1/2 193/1/2
f 193/1/2 192/1/2 194/1/2
f 186/1/2 158/1/2 195/1/2
f 194/1/2 192/1/2 195/1/2
f 192/1/2 186/1/2 195/1/2
f 158/1/2 144/1/2 195/1/2
f 195/1/2 144/1/2 196/1/2
f 194/1/2 195/1/2 197/1/2
f 197/1/2 195/1/2 198/1/2
f 201/1/3 200/1/3 199/1/3
f 205/1/3 204/1/3 203/1/3
f 207/1/3 205/1/3 203/1/3
f 207/1/3 206/1/3 205/1/3
f 208/1/3 206/1/3 207/1/3
f 211/1/3 210/1/3 209/1/3
f 212/1/3 201/1/3 199/1/3
f 212/1/3 202/1/3 201/1/3
f 213/1/3 202/1/3 212/1/3
f 214/1/3 202/1/3 213/1/3
f 215/1/3 212/1/3 211/1/3
f 215/1/3 213/1/3 212/1/3
f 216/2/3 214/2/3 213/2/3
f 216/1/3 213/1/3 215/1/3
f 217/1/3 215/1/3 211/1/3
f 218/2/3 216/2/3 215/2/3
f 218/1/3 215/1/3 217/1/3
f 219/2/3 216/2/3 218/2/3
f 220/2/3 214/2/3 216/2/3
f 220/2/3 216/2/3 219/2/3
f 221/2/3 219/2/3 218/2/3
f 221/1/3 217/1/3 211/1/3
f 221/2/3 218/2/3 217/2/3
f 222/1/3 220/1/3 219/1/3
f 222/2/3 219/2/3 221/2/3
f 223/1/3 211/1/3 209/1/3
f 223/1/3 221/1/3 211/1/3
f 223/1/3 222/1/3 221/1/3
f 224/1/3 220/1/3 222/1/3
f 224/1/3 222/1/3 223/1/3
f 225/1/3 223/1/3 209/1/3
f 226/1/3 223/1/3 225/1/3
f 227/1/3 207/1/3 203/1/3
f 228/1/3 206/1/3 208/1/3
f 229/1/3 206/1/3 228/1/3
f 229/1/3 228/1/3 227/1/3
f 230/1/3 206/1/3 229/1/3
f 231/1/3 227/1/3 203/1/3
f 231/1/3 229/1/3 227/1/3
f 232/1/3 229/1/3 231/1/3
f 233/1/3 220/1/3 224/1/3
f 234/1/3 220/1/3 233/1/3
f 235/1/3 233/1/3 224/1/3
f 236/1/3 233/1/3 235/1/3
f 241/1/3 240/1/3 239/1/3
f 242/1/3 240/1/3 241/1/3
f 244/1/3 238/1/3 237/1/3
f 245/1/3 238/1/3 244/1/3
f 246/1/3 238/1/3 245/1/3
f 247/1/3 238/1/3 246/1/3
f 250/1/3 246/1/3 245/1/3
f 251/2/3 247/2/3 246/2/3
f 251/1/3 246/1/3 250/1/3
f 252/2/3 247/2/3 251/2/3
f 253/1/3 238/1/3 247/1/3
f 253/2/3 247/2/3 252/2/3
f 254/1/3 238/1/3 253/1/3
f 255/1/3 252/1/3 251/1/3
f 255/2/3 254/2/3 253/2/3
f 255/2/3 253/2/3 252/2/3
f 256/2/3 254/2/3 255/2/3
f 257/1/3 255/1/3 251/1/3
f 257/1/3 256/1/3 255/1/3
f 258/1/3 256/1/3 257/1/3
f 259/1/3 249/1/3 248/1/3
f 260/1/3 249/1/3 259/1/3
f 261/1/3 257/1/3 251/1/3
f 264/1/3 261/1/3 251/1/3
f 264/1/3 262/1/3 261/1/3
f 265/1/3 262/1/3 264/1/3
f 266/1/3 244/1/3 243/1/3
f 267/1/3 244/1/3 266/1/3
f 268/1/3 264/1/3 263/1/3
f 269/2/3 265/2/3 264/2/3
f 269/1/3 264/1/3 268/1/3
f 270/2/3 265/2/3 269/2/3
f 271/1/3 262/1/3 265/1/3
f 271/2/3 265/2/3 270/2/3
f 272/1/3 249/1/3 260/1/3
f 273/1/3 249/1/3 272/1/3
f 274/2/3 270/2/3 269/2/3
f 274/2/3 269/2/3 268/2/3
f 275/1/3 271/1/3 270/1/3
f 275/2/3 270/2/3 274/2/3
f 278/1/3 268/1/3 267/1/3
f 279/2/3 274/2/3 268/2/3
f 279/1/3 268/1/3 278/1/3
f 280/1/3 275/1/3 274/1/3
f 280/2/3 274/2/3 279/2/3
f 281/1/3 262/1/3 271/1/3
f 281/1/3 275/1/3 280/1/3
f 281/1/3 271/1/3 275/1/3
f 282/1/3 277/1/3 276/1/3
f 283/1/3 277/1/3 282/1/3
f 288/1/3 285/1/3 284/1/3
f 289/1/3 285/1/3 288/1/3
f 292/1/3 287/1/3 286/1/3
f 293/1/3 287/1/3 292/1/3
f 294/1/3 291/1/3 290/1/3
f 295/1/3 291/1/3 294/1/3
f 296/1/3 288/1/3 284/1/3
f 299/1/3 288/1/3 296/1/3
f 300/1/3 288/1/3 299/1/3
f 301/1/3 285/1/3 289/1/3
f 302/1/3 300/1/3 299/1/3
f 302/1/3 301/1/3 300/1/3
f 303/1/3 285/1/3 301/1/3
f 303/1/3 301/1/3 302/1/3
f 306/1/3 305/1/3 304/1/3
f 307/1/3 305/1/3 306/1/3
f 308/2/3 298/2/3 297/2/3
f 309/2/3 298/2/3 308/2/3
f 314/1/3 311/1/3 310/1/3
f 315/1/3 311/1/3 314/1/3
f 316/1/3 306/1/3 304/1/3
f 317/1/3 305/1/3 307/1/3
f 318/1/3 313/1/3 312/1/3
f 319/1/3 313/1/3 318/1/3
f 320/1/3 316/1/3 304/1/3
f 320/1/3 317/1/3 316/1/3
f 321/1/3 305/1/3 317/1/3
f 321/1/3 317/1/3 320/1/3
f 324/2/3 323/2/3 322/2/3
f 325/2/3 323/2/3 324/2/3
f 328/2/3 327/2/3 326/2/3
f 329/2/3 327/2/3 328/2/3
f 330/1/4 331/1/4 332/1/4
f 332/1/4 331/1/4 333/1/4
f 334/1/4 335/1/4 336/1/4
f 336/1/4 335/1/4 337/1/4
f 338/1/4 339/1/4 342/1/4
f 342/1/4 339/1/4 343/1/4
f 344/1/4 345/1/4 346/1/4
f 346/1/4 345/1/4 347/1/4
f 340/1/4 341/1/4 348/1/4
f 348/1/4 341/1/4 349/1/4
f 350/1/4 351/1/4 352/1/4
f 352/1/4 351/1/4 353/1/4
f 354/1/4 355/1/4 356/1/4
f 354/1/4 356/1/4 358/1/4
f 356/1/4 357/1/4 358/1/4
f 358/1/4 357/1/4 359/1/4
f 354/1/4 358/1/4 360/1/4
f 358/2/4 359/2/4 360/2/4
f 360/2/4 359/2/4 361/2/4
f 359/1/4 357/1/4 362/1/4
f 361/2/4 359/2/4 362/2/4
f 362/1/4 357/1/4 363/1/4
f 360/1/4 361/1/4 364/1/4
f 361/2/4 362/2/4 364/2/4
f 362/2/4 363/2/4 364/2/4
f 364/2/4 363/2/4 365/2/4
f 363/1/4 357/1/4 366/1/4
f 365/2/4 363/2/4 366/2/4
f 366/1/4 357/1/4 367/1/4
f 364/1/4 365/1/4 368/1/4
f 365/2/4 366/2/4 368/2/4
f 366/2/4 367/2/4 368/2/4
f 368/2/4 367/2/4 369/2/4
f 367/1/4 357/1/4 370/1/4
f 369/2/4 367/2/4 370/2/4
f 370/1/4 357/1/4 371/1/4
f 368/1/4 369/1/4 372/1/4
f 354/1/4 360/1/4 372/1/4
f 360/1/4 364/1/4 372/1/4
f 364/1/4 368/1/4 372/1/4
f 372/1/4 369/1/4 373/1/4
f 370/2/4 371/2/4 374/2/4
f 369/2/4 370/2/4 374/2/4
f 371/1/4 357/1/4 375/1/4
f 374/2/4 371/2/4 375/2/4
f 372/2/4 373/2/4 376/2/4
f 354/1/4 372/1/4 376/1/4
f 376/2/4 373/2/4 377/2/4
f 373/1/4 369/1/4 378/1/4
f 377/2/4 373/2/4 378/2/4
f 369/2/4 374/2/4 379/2/4
f 378/1/4 369/1/4 379/1/4
f 374/1/4 375/1/4 380/1/4
f 375/1/4 357/1/4 381/1/4
f 380/1/4 375/1/4 381/1/4
f 377/2/4 378/2/4 382/2/4
f 376/1/4 377/1/4 382/1/4
f 378/2/4 379/2/4 382/2/4
f 379/2/4 374/2/4 383/2/4
f 382/2/4 379/2/4 383/2/4
f 380/2/4 381/2/4 384/2/4
f 381/1/4 357/1/4 385/1/4
f 384/2/4 381/2/4 385/2/4
f 376/1/4 382/1/4 386/1/4
f 382/1/4 383/1/4 386/1/4
f 383/2/4 374/2/4 387/2/4
f 386/1/4 383/1/4 387/1/4
f 374/1/4 380/1/4 388/1/4
f 387/2/4 374/2/4 388/2/4
f 380/2/4 384/2/4 389/2/4
f 388/1/4 380/1/4 389/1/4
f 384/1/4 385/1/4 390/1/4
f 389/2/4 384/2/4 390/2/4
f 390/1/4 385/1/4 391/1/4
f 387/2/4 388/2/4 392/2/4
f 376/1/4 386/1/4 392/1/4
f 390/2/4 391/2/4 392/2/4
f 389/2/4 390/2/4 392/2/4
f 388/2/4 389/2/4 392/2/4
f 386/2/4 387/2/4 392/2/4
f 392/2/4 391/2/4 393/2/4
f 393/2/4 391/2/4 394/2/4
f 391/1/4 385/1/4 395/1/4
f 394/2/4 391/2/4 395/2/4
f 354/1/4 376/1/4 396/1/4
f 376/1/4 392/1/4 396/1/4
f 392/1/4 393/1/4 396/1/4
f 393/2/4 394/2/4 397/2/4
f 396/1/4 393/1/4 397/1/4
f 354/1/4 396/1/4 398/1/4
f 396/2/4 397/2/4 398/2/4
f 397/2/4 394/2/4 399/2/4
f 398/2/4 397/2/4 399/2/4
f 394/1/4 395/1/4 399/1/4
f 395/1/4 385/1/4 400/1/4
f 399/1/4 395/1/4 400/1/4
f 398/1/4 399/1/4 400/1/4
f 385/1/4 357/1/4 400/1/4
f 400/1/4 357/1/4 401/1/4
f 354/1/4 398/1/4 402/1/4
f 398/1/4 400/1/4 402/1/4
f 402/1/4 400/1/4 403/1/4
f 407/1/5 405/1/5 404/1/5
f 408/1/5 405/1/5 407/1/5
f 410/1/5 407/1/5 406/1/5
f 410/1/5 409/1/5 408/1/5
f 410/1/5 408/1/5 407/1/5
f 411/1/5 409/1/5 410/1/5
f 415/1/5 413/1/5 412/1/5
f 416/1/5 413/1/5 415/1/5
f 418/1/5 415/1/5 414/1/5
f 419/1/5 415/1/5 418/1/5
f 420/1/5 417/1/5 416/1/5
f 421/1/5 417/1/5 420/1/5
f 422/1/5 418/1/5 414/1/5
f 423/1/5 417/1/5 421/1/5
f 424/1/5 422/1/5 414/1/5
f 424/1/5 423/1/5 422/1/5
f 425/1/5 417/1/5 423/1/5
f 425/1/5 423/1/5 424/1/5
f 428/1/5 427/1/5 426/1/5
f 429/1/5 427/1/5 428/1/5
f 432/1/5 431/1/5 430/1/5
f 433/1/5 431/1/5 432/1/5
f 438/1/5 435/1/5 434/1/5
f 439/1/5 435/1/5 438/1/5
f 440/1/5 437/1/5 436/1/5
f 441/1/5 437/1/5 440/1/5
f 446/1/5 443/1/5 442/1/5
f 447/1/5 443/1/5 446/1/5
f 448/1/5 445/1/5 444/1/5
f 449/1/5 445/1/5 448/1/5
f 450/1/6 451/1/6 452/1/6
f 452/1/6 451/1/6 453/1/6
f 454/1/6 455/1/6 458/1/6
f 458/1/6 455/1/6 459/1/6
f 456/1/6 457/1/6 460/1/6
f 460/1/6 457/1/6 461/1/6
f 462/1/6 463/1/6 464/1/6
f 464/1/6 463/1/6 465/1/6
f 466/1/6 467/1/6 473/1/6
f 468/1/6 469/1/6 474/1/6
f 470/1/6 471/1/6 476/1/6
f 471/2/6 472/2/6 477/2/6
f 476/1/6 471/1/6 477/1/6
f 472/1/6 473/1/6 478/1/6
f 477/2/6 472/2/6 478/2/6
f 473/1/6 467/1/6 479/1/6
f 478/1/6 473/1/6 479/1/6
f 474/1/6 475/1/6 480/1/6
f 468/1/6 474/1/6 480/1/6
f 480/1/6 475/1/6 481/1/6
f 482/1/6 483/1/6 486/1/6
f 486/1/6 483/1/6 487/1/6
f 484/1/6 485/1/6 488/1/6
f 488/1/6 485/1/6 489/1/6
f 490/1/6 491/1/6 494/1/6
f 494/1/6 491/1/6 495/1/6
f 492/1/6 493/1/6 496/1/6
f 496/1/6 493/1/6 497/1/6
f 498/1/6 499/1/6 502/1/6
f 502/1/6 499/1/6 503/1/6
f 500/1/6 501/1/6 504/1/6
f 504/1/6 501/1/6 505/1/6
f 506/1/6 507/1/6 511/1/6
f 511/1/6 507/1/6 512/1/6
f 507/2/6 508/2/6 513/2/6
f 512/1/6 507/1/6 513/1/6
f 508/1/6 509/1/6 514/1/6
f 513/2/6 508/2/6 514/2/6
f 514/1/6 509/1/6 515/1/6
f 515/1/6 509/1/6 516/1/6
f 511/1/6 512/1/6 518/1/6
f 510/1/6 511/1/6 518/1/6
f 518/1/6 512/1/6 519/1/6
f 516/1/6 517/1/6 520/1/6
f 515/1/6 516/1/6 520/1/6
f 520/1/6 517/1/6 521/1/6
f 510/1/6 518/1/6 522/1/6
f 521/1/6 517/1/6 525/1/6
f 522/1/6 523/1/6 526/1/6
f 510/1/6 522/1/6 526/1/6
f 526/1/6 523/1/6 527/1/6
f 527/1/6 523/1/6 528/1/6
f 524/1/6 525/1/6 529/1/6
f 525/1/6 517/1/6 530/1/6
f 529/1/6 525/1/6 530/1/6
f 530/1/6 517/1/6 531/1/6
f 527/1/6 528/1/6 532/1/6
f 528/1/6 529/1/6 532/1/6
f 529/1/6 530/1/6 532/1/6
f 532/1/6 530/1/6 533/1/6
f 534/1/6 535/1/6 537/1/6
f 537/1/6 535/1/6 538/1/6
f 536/1/6 537/1/6 540/1/6
f 538/1/6 539/1/6 540/1/6
f 537/1/6 538/1/6 540/1/6
f 540/1/6 539/1/6 541/1/6
f 541/1/6 539/1/6 542/1/6
f 542/1/6 539/1/6 543/1/6
f 541/1/6 542/1/6 544/1/6
f 544/1/6 542/1/6 545/1/6
