# MagicaVoxel @ Ephtracy

# material
mtllib altarscene.mtl
usemtl palette

# normals
vn -1 0 0
vn 1 0 0
vn 0 0 1
vn 0 0 -1
vn 0 -1 0
vn 0 1 0

# texcoords
vt 0.716797 0.5
vt 0.748047 0.5
vt 0.767578 0.5
vt 0.884766 0.5
vt 0.888672 0.5
vt 0.970703 0.5
vt 0.974609 0.5
vt 0.990234 0.5

# verts
v -63 0 63
v -63 0 -59
v -63 0 -63
v -63 1 63
v -63 1 -59
v -63 2 63
v -63 2 -63
v -63 3 63
v -63 3 -63
v -13 3 15
v -13 3 13
v -13 3 -6
v -13 3 -8
v -13 4 15
v -13 4 13
v -13 4 -6
v -13 4 -8
v -12 3 16
v -12 3 15
v -12 3 13
v -12 3 -6
v -12 3 -8
v -12 3 -9
v -12 4 16
v -12 4 15
v -12 4 13
v -12 4 -6
v -12 4 -8
v -12 4 -9
v -11 3 -9
v -11 3 -10
v -11 4 -9
v -11 4 -10
v -8 1 11
v -8 1 -5
v -8 4 11
v -8 4 4
v -8 4 3
v -8 4 -5
v -8 5 5
v -8 5 4
v -8 6 11
v -8 6 10
v -8 6 4
v -8 6 3
v -8 6 -0
v -8 6 -1
v -8 7 11
v -8 7 10
v -8 7 6
v -8 7 5
v -8 8 5
v -8 8 4
v -8 8 2
v -8 8 -0
v -8 9 6
v -8 9 5
v -8 9 1
v -8 9 -0
v -8 9 -1
v -8 9 -3
v -8 9 -4
v -8 9 -5
v -8 10 3
v -8 10 2
v -8 10 -0
v -8 10 -2
v -8 11 2
v -8 11 1
v -8 11 -4
v -8 11 -5
v -8 12 11
v -8 12 3
v -8 12 2
v -8 12 -2
v -8 12 -3
v -8 12 -5
v 9 3 16
v 9 3 15
v 9 3 -9
v 9 3 -10
v 9 4 16
v 9 4 15
v 9 4 -9
v 9 4 -10
v 11 1 14
v 11 1 -8
v 11 2 14
v 11 2 -8
v 11 3 14
v 11 3 -8
v 11 4 14
v 11 4 -8
v -11 1 14
v -11 1 -8
v -11 2 14
v -11 2 -8
v -11 3 14
v -11 3 -8
v -11 4 14
v -11 4 -8
v -10 3 16
v -10 3 15
v -10 4 16
v -10 4 15
v -9 3 -9
v -9 3 -10
v -9 4 -9
v -9 4 -10
v 8 1 11
v 8 1 -5
v 8 4 11
v 8 4 2
v 8 4 1
v 8 4 -5
v 8 5 6
v 8 5 2
v 8 6 6
v 8 6 5
v 8 6 4
v 8 6 2
v 8 6 1
v 8 6 -1
v 8 7 10
v 8 7 9
v 8 7 5
v 8 7 4
v 8 7 1
v 8 7 -0
v 8 7 -1
v 8 7 -2
v 8 8 11
v 8 8 10
v 8 8 9
v 8 8 8
v 8 8 4
v 8 8 2
v 8 8 -0
v 8 8 -1
v 8 8 -2
v 8 8 -4
v 8 9 11
v 8 9 9
v 8 9 8
v 8 9 7
v 8 9 3
v 8 9 1
v 8 9 -1
v 8 9 -3
v 8 10 8
v 8 10 7
v 8 10 4
v 8 10 3
v 8 11 -3
v 8 11 -4
v 8 12 11
v 8 12 9
v 8 12 8
v 8 12 -5
v 11 3 16
v 11 3 15
v 11 3 -9
v 11 3 -10
v 11 4 16
v 11 4 15
v 11 4 -9
v 11 4 -10
v 12 3 15
v 12 3 14
v 12 3 12
v 12 3 -6
v 12 3 -8
v 12 3 -9
v 12 4 15
v 12 4 14
v 12 4 12
v 12 4 -6
v 12 4 -8
v 12 4 -9
v 13 3 14
v 13 3 12
v 13 3 -6
v 13 3 -8
v 13 4 14
v 13 4 12
v 13 4 -6
v 13 4 -8
v 63 0 63
v 63 0 62
v 63 0 -63
v 63 1 63
v 63 1 62
v 63 2 63
v 63 2 -63
v 63 3 63
v 63 3 -63
v -63 0 63
v -63 1 63
v -63 2 63
v -63 3 63
v 63 0 63
v 63 1 63
v 63 2 63
v 63 3 63
v -12 3 16
v -12 4 16
v -10 3 16
v -10 4 16
v 9 3 16
v 9 4 16
v 11 3 16
v 11 4 16
v -13 3 15
v -13 4 15
v -12 3 15
v -12 4 15
v -10 3 15
v -10 4 15
v 9 3 15
v 9 4 15
v 11 3 15
v 11 4 15
v 12 3 15
v 12 4 15
v 12 3 14
v 12 4 14
v 13 3 14
v 13 4 14
v -8 1 11
v -8 4 11
v -8 6 11
v -8 7 11
v -8 12 11
v -7 7 11
v -7 9 11
v -6 4 11
v -6 6 11
v -6 7 11
v -6 9 11
v -5 4 11
v -5 6 11
v -4 6 11
v -4 7 11
v -3 8 11
v -3 11 11
v -2 8 11
v -2 10 11
v -2 11 11
v -2 12 11
v -1 4 11
v -1 7 11
v -1 10 11
v -1 12 11
v 0 4 11
v 0 6 11
v 0 7 11
v 0 8 11
v 1 7 11
v 1 8 11
v 2 5 11
v 2 6 11
v 3 5 11
v 3 6 11
v 4 6 11
v 4 7 11
v 4 10 11
v 4 11 11
v 6 6 11
v 6 10 11
v 6 11 11
v 6 12 11
v 7 6 11
v 7 8 11
v 7 9 11
v 7 12 11
v 8 1 11
v 8 4 11
v 8 8 11
v 8 9 11
v 8 12 11
v -13 3 -6
v -13 4 -6
v -12 3 -6
v -12 4 -6
v 12 3 -6
v 12 4 -6
v 13 3 -6
v 13 4 -6
v -11 1 -8
v -11 2 -8
v -11 3 -8
v -11 4 -8
v 11 1 -8
v 11 2 -8
v 11 3 -8
v 11 4 -8
v -11 1 14
v -11 2 14
v -11 3 14
v -11 4 14
v -10 1 14
v -10 2 14
v 11 1 14
v 11 2 14
v 11 3 14
v 11 4 14
v -13 3 13
v -13 4 13
v -12 3 13
v -12 4 13
v 12 3 12
v 12 4 12
v 13 3 12
v 13 4 12
v -8 1 -5
v -8 4 -5
v -8 9 -5
v -8 11 -5
v -8 12 -5
v -7 10 -5
v -7 11 -5
v -6 4 -5
v -6 7 -5
v -6 8 -5
v -6 9 -5
v -5 4 -5
v -5 6 -5
v -5 7 -5
v -5 8 -5
v -5 9 -5
v -5 10 -5
v -4 6 -5
v -4 8 -5
v -4 9 -5
v -4 11 -5
v -3 8 -5
v -3 11 -5
v -1 5 -5
v -1 6 -5
v 0 4 -5
v 0 5 -5
v 0 8 -5
v 0 10 -5
v 1 4 -5
v 1 5 -5
v 1 6 -5
v 1 8 -5
v 2 5 -5
v 2 6 -5
v 2 7 -5
v 2 8 -5
v 2 9 -5
v 2 10 -5
v 3 8 -5
v 3 9 -5
v 4 6 -5
v 4 7 -5
v 4 8 -5
v 4 12 -5
v 5 8 -5
v 5 10 -5
v 5 11 -5
v 5 12 -5
v 6 10 -5
v 6 11 -5
v 8 1 -5
v 8 4 -5
v 8 12 -5
v -13 3 -8
v -13 4 -8
v -12 3 -8
v -12 4 -8
v 12 3 -8
v 12 4 -8
v 13 3 -8
v 13 4 -8
v -12 3 -9
v -12 4 -9
v -11 3 -9
v -11 4 -9
v -9 3 -9
v -9 4 -9
v 9 3 -9
v 9 4 -9
v 11 3 -9
v 11 4 -9
v 12 3 -9
v 12 4 -9
v -11 3 -10
v -11 4 -10
v -9 3 -10
v -9 4 -10
v 9 3 -10
v 9 4 -10
v 11 3 -10
v 11 4 -10
v -63 0 -63
v -63 2 -63
v -63 3 -63
v -62 0 -63
v -62 2 -63
v 62 0 -63
v 62 2 -63
v 63 0 -63
v 63 2 -63
v 63 3 -63
v -63 0 63
v 63 0 63
v -62 0 62
v 62 0 62
v 63 0 62
v -10 0 15
v 11 0 15
v -11 0 14
v -10 0 14
v -11 0 -8
v 11 0 -8
v -63 0 -59
v -62 0 -59
v -62 0 -62
v 62 0 -62
v -63 0 -63
v -62 0 -63
v 62 0 -63
v 63 0 -63
v -11 1 14
v -10 1 14
v 11 1 14
v -8 1 11
v 8 1 11
v -8 1 -5
v 8 1 -5
v -11 1 -8
v 11 1 -8
v -63 3 63
v 63 3 63
v -12 3 16
v -10 3 16
v 9 3 16
v 11 3 16
v -13 3 15
v -12 3 15
v -10 3 15
v 9 3 15
v 11 3 15
v 12 3 15
v 12 3 14
v 13 3 14
v -13 3 13
v -12 3 13
v 12 3 12
v 13 3 12
v -13 3 -6
v -12 3 -6
v 12 3 -6
v 13 3 -6
v -13 3 -8
v -12 3 -8
v 12 3 -8
v 13 3 -8
v -12 3 -9
v -11 3 -9
v -9 3 -9
v 9 3 -9
v 11 3 -9
v 12 3 -9
v -11 3 -10
v -9 3 -10
v 9 3 -10
v 11 3 -10
v -63 3 -63
v 63 3 -63
v -12 4 16
v -10 4 16
v 9 4 16
v 11 4 16
v -13 4 15
v -12 4 15
v -10 4 15
v 9 4 15
v 11 4 15
v 12 4 15
v -11 4 14
v 11 4 14
v 12 4 14
v 13 4 14
v -13 4 13
v -12 4 13
v 12 4 12
v 13 4 12
v -13 4 -6
v -12 4 -6
v 12 4 -6
v 13 4 -6
v -13 4 -8
v -12 4 -8
v -11 4 -8
v 11 4 -8
v 12 4 -8
v 13 4 -8
v -12 4 -9
v -11 4 -9
v -9 4 -9
v 9 4 -9
v 11 4 -9
v 12 4 -9
v -11 4 -10
v -9 4 -10
v 9 4 -10
v 11 4 -10
v -8 12 11
v -2 12 11
v -1 12 11
v 6 12 11
v 7 12 11
v 8 12 11
v -2 12 10
v -1 12 10
v 6 12 10
v 7 12 10
v 7 12 9
v 8 12 9
v 7 12 8
v 8 12 8
v -8 12 3
v -7 12 3
v -8 12 2
v -7 12 2
v -8 12 -2
v -7 12 -2
v -8 12 -3
v -7 12 -3
v 4 12 -4
v 5 12 -4
v -8 12 -5
v 4 12 -5
v 5 12 -5
v 8 12 -5

# faces
f 4/3/1 2/3/1 1/3/1
f 5/2/1 3/2/1 2/2/1
f 5/3/1 2/3/1 4/3/1
f 6/2/1 5/2/1 4/2/1
f 7/2/1 3/2/1 5/2/1
f 7/2/1 5/2/1 6/2/1
f 8/1/1 7/1/1 6/1/1
f 9/1/1 7/1/1 8/1/1
f 14/6/1 11/6/1 10/6/1
f 15/6/1 11/6/1 14/6/1
f 16/6/1 13/6/1 12/6/1
f 17/6/1 13/6/1 16/6/1
f 24/6/1 19/6/1 18/6/1
f 25/6/1 19/6/1 24/6/1
f 26/6/1 21/6/1 20/6/1
f 27/6/1 21/6/1 26/6/1
f 28/6/1 23/6/1 22/6/1
f 29/6/1 23/6/1 28/6/1
f 32/6/1 31/6/1 30/6/1
f 33/6/1 31/6/1 32/6/1
f 36/7/1 35/7/1 34/7/1
f 37/7/1 35/7/1 36/7/1
f 38/7/1 35/7/1 37/7/1
f 39/7/1 35/7/1 38/7/1
f 40/6/1 37/6/1 36/6/1
f 41/7/1 38/7/1 37/7/1
f 41/6/1 37/6/1 40/6/1
f 42/6/1 40/6/1 36/6/1
f 43/6/1 40/6/1 42/6/1
f 44/7/1 38/7/1 41/7/1
f 44/7/1 41/7/1 40/7/1
f 45/6/1 39/6/1 38/6/1
f 45/7/1 38/7/1 44/7/1
f 46/6/1 39/6/1 45/6/1
f 47/6/1 39/6/1 46/6/1
f 48/7/1 43/7/1 42/7/1
f 49/6/1 40/6/1 43/6/1
f 49/7/1 43/7/1 48/7/1
f 50/6/1 40/6/1 49/6/1
f 51/7/1 44/7/1 40/7/1
f 51/6/1 40/6/1 50/6/1
f 52/7/1 51/7/1 50/7/1
f 52/7/1 44/7/1 51/7/1
f 53/6/1 45/6/1 44/6/1
f 53/7/1 44/7/1 52/7/1
f 53/6/1 46/6/1 45/6/1
f 54/6/1 46/6/1 53/6/1
f 55/7/1 47/7/1 46/7/1
f 55/6/1 46/6/1 54/6/1
f 56/6/1 50/6/1 49/6/1
f 56/7/1 52/7/1 50/7/1
f 56/6/1 49/6/1 48/6/1
f 57/6/1 53/6/1 52/6/1
f 57/7/1 52/7/1 56/7/1
f 57/6/1 54/6/1 53/6/1
f 58/7/1 55/7/1 54/7/1
f 59/7/1 47/7/1 55/7/1
f 59/7/1 55/7/1 58/7/1
f 60/6/1 39/6/1 47/6/1
f 60/7/1 47/7/1 59/7/1
f 61/6/1 39/6/1 60/6/1
f 62/6/1 39/6/1 61/6/1
f 63/6/1 39/6/1 62/6/1
f 64/6/1 54/6/1 57/6/1
f 64/6/1 57/6/1 56/6/1
f 65/7/1 58/7/1 54/7/1
f 65/6/1 54/6/1 64/6/1
f 66/6/1 59/6/1 58/6/1
f 66/7/1 60/7/1 59/7/1
f 66/7/1 61/7/1 60/7/1
f 67/7/1 61/7/1 66/7/1
f 68/7/1 58/7/1 65/7/1
f 68/7/1 65/7/1 64/7/1
f 69/6/1 67/6/1 66/6/1
f 69/7/1 58/7/1 68/7/1
f 69/6/1 66/6/1 58/6/1
f 70/7/1 63/7/1 62/7/1
f 70/6/1 62/6/1 61/6/1
f 71/7/1 63/7/1 70/7/1
f 72/6/1 64/6/1 56/6/1
f 72/6/1 56/6/1 48/6/1
f 73/7/1 68/7/1 64/7/1
f 73/6/1 64/6/1 72/6/1
f 74/6/1 69/6/1 68/6/1
f 74/7/1 68/7/1 73/7/1
f 75/7/1 61/7/1 67/7/1
f 75/6/1 69/6/1 74/6/1
f 75/6/1 67/6/1 69/6/1
f 76/6/1 71/6/1 70/6/1
f 76/7/1 61/7/1 75/7/1
f 76/6/1 70/6/1 61/6/1
f 77/6/1 71/6/1 76/6/1
f 82/6/1 79/6/1 78/6/1
f 83/6/1 79/6/1 82/6/1
f 84/6/1 81/6/1 80/6/1
f 85/6/1 81/6/1 84/6/1
f 88/5/1 87/5/1 86/5/1
f 89/5/1 87/5/1 88/5/1
f 90/1/1 89/1/1 88/1/1
f 91/1/1 89/1/1 90/1/1
f 92/6/1 91/6/1 90/6/1
f 93/6/1 91/6/1 92/6/1
f 94/5/2 95/5/2 96/5/2
f 96/5/2 95/5/2 97/5/2
f 96/1/2 97/1/2 98/1/2
f 98/1/2 97/1/2 99/1/2
f 98/6/2 99/6/2 100/6/2
f 100/6/2 99/6/2 101/6/2
f 102/6/2 103/6/2 104/6/2
f 104/6/2 103/6/2 105/6/2
f 106/6/2 107/6/2 108/6/2
f 108/6/2 107/6/2 109/6/2
f 110/7/2 111/7/2 112/7/2
f 112/7/2 111/7/2 113/7/2
f 113/7/2 111/7/2 114/7/2
f 114/7/2 111/7/2 115/7/2
f 112/6/2 113/6/2 116/6/2
f 113/7/2 114/7/2 117/7/2
f 116/6/2 113/6/2 117/6/2
f 112/6/2 116/6/2 118/6/2
f 116/7/2 117/7/2 118/7/2
f 118/7/2 117/7/2 119/7/2
f 119/7/2 117/7/2 120/7/2
f 117/7/2 114/7/2 121/7/2
f 120/7/2 117/7/2 121/7/2
f 114/6/2 115/6/2 122/6/2
f 121/7/2 114/7/2 122/7/2
f 122/6/2 115/6/2 123/6/2
f 112/6/2 118/6/2 124/6/2
f 118/6/2 119/6/2 124/6/2
f 124/6/2 119/6/2 125/6/2
f 119/7/2 120/7/2 126/7/2
f 125/6/2 119/6/2 126/6/2
f 120/6/2 121/6/2 127/6/2
f 126/7/2 120/7/2 127/7/2
f 122/7/2 123/7/2 128/7/2
f 121/7/2 122/7/2 128/7/2
f 128/7/2 123/7/2 129/7/2
f 123/6/2 115/6/2 130/6/2
f 129/7/2 123/7/2 130/7/2
f 130/6/2 115/6/2 131/6/2
f 112/6/2 124/6/2 132/6/2
f 124/7/2 125/7/2 133/7/2
f 132/6/2 124/6/2 133/6/2
f 125/6/2 126/6/2 134/6/2
f 133/7/2 125/7/2 134/7/2
f 126/6/2 127/6/2 134/6/2
f 134/6/2 127/6/2 135/6/2
f 127/6/2 121/6/2 136/6/2
f 135/6/2 127/6/2 136/6/2
f 121/7/2 128/7/2 137/7/2
f 136/6/2 121/6/2 137/6/2
f 128/6/2 129/6/2 138/6/2
f 130/7/2 131/7/2 138/7/2
f 129/7/2 130/7/2 138/7/2
f 138/7/2 131/7/2 139/7/2
f 131/6/2 115/6/2 140/6/2
f 139/7/2 131/7/2 140/7/2
f 140/6/2 115/6/2 141/6/2
f 132/7/2 133/7/2 142/7/2
f 134/7/2 135/7/2 142/7/2
f 133/7/2 134/7/2 142/7/2
f 142/7/2 135/7/2 143/7/2
f 135/6/2 136/6/2 144/6/2
f 143/7/2 135/7/2 144/7/2
f 144/6/2 136/6/2 145/6/2
f 136/7/2 137/7/2 146/7/2
f 137/7/2 128/7/2 147/7/2
f 146/7/2 137/7/2 147/7/2
f 138/6/2 139/6/2 147/6/2
f 128/6/2 138/6/2 147/6/2
f 140/7/2 141/7/2 148/7/2
f 147/6/2 139/6/2 148/6/2
f 139/7/2 140/7/2 148/7/2
f 148/7/2 141/7/2 149/7/2
f 144/7/2 145/7/2 150/7/2
f 143/7/2 144/7/2 150/7/2
f 145/6/2 136/6/2 151/6/2
f 150/7/2 145/7/2 151/7/2
f 136/7/2 146/7/2 152/7/2
f 151/6/2 136/6/2 152/6/2
f 146/6/2 147/6/2 153/6/2
f 152/7/2 146/7/2 153/7/2
f 148/6/2 149/6/2 153/6/2
f 147/6/2 148/6/2 153/6/2
f 150/6/2 151/6/2 154/6/2
f 153/6/2 149/6/2 154/6/2
f 152/6/2 153/6/2 154/6/2
f 151/6/2 152/6/2 154/6/2
f 149/7/2 141/7/2 154/7/2
f 141/6/2 115/6/2 155/6/2
f 154/7/2 141/7/2 155/7/2
f 142/6/2 143/6/2 156/6/2
f 143/7/2 150/7/2 157/7/2
f 156/6/2 143/6/2 157/6/2
f 150/6/2 154/6/2 158/6/2
f 157/7/2 150/7/2 158/7/2
f 154/6/2 155/6/2 158/6/2
f 155/6/2 115/6/2 159/6/2
f 158/6/2 155/6/2 159/6/2
f 160/6/2 161/6/2 164/6/2
f 164/6/2 161/6/2 165/6/2
f 162/6/2 163/6/2 166/6/2
f 166/6/2 163/6/2 167/6/2
f 168/6/2 169/6/2 174/6/2
f 174/6/2 169/6/2 175/6/2
f 170/6/2 171/6/2 176/6/2
f 176/6/2 171/6/2 177/6/2
f 172/6/2 173/6/2 178/6/2
f 178/6/2 173/6/2 179/6/2
f 180/6/2 181/6/2 184/6/2
f 184/6/2 181/6/2 185/6/2
f 182/6/2 183/6/2 186/6/2
f 186/6/2 183/6/2 187/6/2
f 188/3/2 189/3/2 191/3/2
f 189/2/2 190/2/2 192/2/2
f 191/3/2 189/3/2 192/3/2
f 191/2/2 192/2/2 193/2/2
f 192/2/2 190/2/2 194/2/2
f 193/2/2 192/2/2 194/2/2
f 193/1/2 194/1/2 195/1/2
f 195/1/2 194/1/2 196/1/2
f 201/3/3 198/3/3 197/3/3
f 202/2/3 199/2/3 198/2/3
f 202/3/3 198/3/3 201/3/3
f 203/1/3 200/1/3 199/1/3
f 203/2/3 199/2/3 202/2/3
f 204/1/3 200/1/3 203/1/3
f 207/6/3 206/6/3 205/6/3
f 208/6/3 206/6/3 207/6/3
f 211/6/3 210/6/3 209/6/3
f 212/6/3 210/6/3 211/6/3
f 215/6/3 214/6/3 213/6/3
f 216/6/3 214/6/3 215/6/3
f 219/6/3 218/6/3 217/6/3
f 220/6/3 218/6/3 219/6/3
f 223/6/3 222/6/3 221/6/3
f 224/6/3 222/6/3 223/6/3
f 227/6/3 226/6/3 225/6/3
f 228/6/3 226/6/3 227/6/3
f 234/7/3 232/7/3 231/7/3
f 234/6/3 233/6/3 232/6/3
f 235/6/3 233/6/3 234/6/3
f 236/7/3 230/7/3 229/7/3
f 236/6/3 231/6/3 230/6/3
f 237/7/3 235/7/3 234/7/3
f 237/6/3 231/6/3 236/6/3
f 237/7/3 234/7/3 231/7/3
f 238/7/3 235/7/3 237/7/3
f 239/6/3 233/6/3 235/6/3
f 239/7/3 235/7/3 238/7/3
f 240/7/3 238/7/3 237/7/3
f 240/7/3 236/7/3 229/7/3
f 240/7/3 237/7/3 236/7/3
f 241/7/3 238/7/3 240/7/3
f 242/6/3 241/6/3 240/6/3
f 242/7/3 238/7/3 241/7/3
f 243/6/3 239/6/3 238/6/3
f 243/7/3 238/7/3 242/7/3
f 244/6/3 243/6/3 242/6/3
f 244/6/3 239/6/3 243/6/3
f 245/6/3 233/6/3 239/6/3
f 245/6/3 239/6/3 244/6/3
f 246/6/3 244/6/3 242/6/3
f 246/7/3 245/7/3 244/7/3
f 247/7/3 245/7/3 246/7/3
f 248/6/3 233/6/3 245/6/3
f 248/7/3 245/7/3 247/7/3
f 249/6/3 233/6/3 248/6/3
f 250/6/3 247/6/3 246/6/3
f 250/6/3 242/6/3 240/6/3
f 250/7/3 240/7/3 229/7/3
f 250/6/3 246/6/3 242/6/3
f 251/6/3 247/6/3 250/6/3
f 252/7/3 249/7/3 248/7/3
f 252/6/3 247/6/3 251/6/3
f 252/7/3 248/7/3 247/7/3
f 253/7/3 249/7/3 252/7/3
f 254/7/3 251/7/3 250/7/3
f 254/7/3 250/7/3 229/7/3
f 255/7/3 251/7/3 254/7/3
f 256/6/3 253/6/3 252/6/3
f 256/7/3 251/7/3 255/7/3
f 256/6/3 252/6/3 251/6/3
f 257/6/3 253/6/3 256/6/3
f 258/7/3 256/7/3 255/7/3
f 258/7/3 257/7/3 256/7/3
f 259/6/3 253/6/3 257/6/3
f 259/7/3 257/7/3 258/7/3
f 260/6/3 255/6/3 254/6/3
f 261/7/3 258/7/3 255/7/3
f 261/6/3 255/6/3 260/6/3
f 262/6/3 260/6/3 254/6/3
f 262/7/3 261/7/3 260/7/3
f 263/7/3 258/7/3 261/7/3
f 263/7/3 261/7/3 262/7/3
f 264/6/3 263/6/3 262/6/3
f 264/7/3 258/7/3 263/7/3
f 265/6/3 259/6/3 258/6/3
f 265/7/3 258/7/3 264/7/3
f 266/6/3 253/6/3 259/6/3
f 266/6/3 259/6/3 265/6/3
f 267/6/3 253/6/3 266/6/3
f 268/6/3 265/6/3 264/6/3
f 268/6/3 264/6/3 262/6/3
f 268/6/3 266/6/3 265/6/3
f 269/7/3 267/7/3 266/7/3
f 269/6/3 266/6/3 268/6/3
f 270/6/3 253/6/3 267/6/3
f 270/7/3 267/7/3 269/7/3
f 271/6/3 253/6/3 270/6/3
f 272/7/3 269/7/3 268/7/3
f 272/6/3 268/6/3 262/6/3
f 272/7/3 271/7/3 270/7/3
f 272/7/3 270/7/3 269/7/3
f 273/7/3 271/7/3 272/7/3
f 274/7/3 271/7/3 273/7/3
f 275/7/3 271/7/3 274/7/3
f 276/7/3 254/7/3 229/7/3
f 277/6/3 262/6/3 254/6/3
f 277/7/3 254/7/3 276/7/3
f 277/6/3 272/6/3 262/6/3
f 277/6/3 273/6/3 272/6/3
f 278/7/3 274/7/3 273/7/3
f 278/6/3 273/6/3 277/6/3
f 279/6/3 275/6/3 274/6/3
f 279/7/3 274/7/3 278/7/3
f 280/6/3 275/6/3 279/6/3
f 283/6/3 282/6/3 281/6/3
f 284/6/3 282/6/3 283/6/3
f 287/6/3 286/6/3 285/6/3
f 288/6/3 286/6/3 287/6/3
f 293/5/3 290/5/3 289/5/3
f 294/1/3 291/1/3 290/1/3
f 294/5/3 290/5/3 293/5/3
f 295/6/3 292/6/3 291/6/3
f 295/1/3 291/1/3 294/1/3
f 296/6/3 292/6/3 295/6/3
f 297/5/4 298/5/4 301/5/4
f 298/1/4 299/1/4 302/1/4
f 301/5/4 298/5/4 302/5/4
f 301/8/4 302/8/4 303/8/4
f 302/1/4 299/1/4 304/1/4
f 303/8/4 302/8/4 304/8/4
f 299/6/4 300/6/4 305/6/4
f 304/1/4 299/1/4 305/1/4
f 305/6/4 300/6/4 306/6/4
f 307/6/4 308/6/4 309/6/4
f 309/6/4 308/6/4 310/6/4
f 311/6/4 312/6/4 313/6/4
f 313/6/4 312/6/4 314/6/4
f 317/7/4 318/7/4 320/7/4
f 318/6/4 319/6/4 321/6/4
f 320/7/4 318/7/4 321/7/4
f 315/7/4 316/7/4 322/7/4
f 316/6/4 317/6/4 322/6/4
f 322/6/4 317/6/4 323/6/4
f 323/6/4 317/6/4 324/6/4
f 317/7/4 320/7/4 325/7/4
f 324/6/4 317/6/4 325/6/4
f 315/7/4 322/7/4 326/7/4
f 322/7/4 323/7/4 326/7/4
f 326/7/4 323/7/4 327/7/4
f 323/6/4 324/6/4 328/6/4
f 327/7/4 323/7/4 328/7/4
f 324/7/4 325/7/4 329/7/4
f 328/6/4 324/6/4 329/6/4
f 325/7/4 320/7/4 330/7/4
f 329/7/4 325/7/4 330/7/4
f 320/6/4 321/6/4 331/6/4
f 330/7/4 320/7/4 331/7/4
f 329/7/4 330/7/4 332/7/4
f 326/6/4 327/6/4 332/6/4
f 328/7/4 329/7/4 332/7/4
f 327/7/4 328/7/4 332/7/4
f 332/7/4 330/7/4 333/7/4
f 330/6/4 331/6/4 334/6/4
f 333/7/4 330/7/4 334/7/4
f 321/6/4 319/6/4 335/6/4
f 334/6/4 331/6/4 335/6/4
f 331/6/4 321/6/4 335/6/4
f 333/7/4 334/7/4 336/7/4
f 332/6/4 333/6/4 336/6/4
f 334/7/4 335/7/4 336/7/4
f 335/6/4 319/6/4 337/6/4
f 336/7/4 335/7/4 337/7/4
f 332/6/4 336/6/4 338/6/4
f 326/6/4 332/6/4 338/6/4
f 336/6/4 337/6/4 338/6/4
f 338/6/4 337/6/4 339/6/4
f 315/7/4 326/7/4 340/7/4
f 326/6/4 338/6/4 340/6/4
f 338/7/4 339/7/4 341/7/4
f 340/6/4 338/6/4 341/6/4
f 339/6/4 337/6/4 342/6/4
f 342/6/4 337/6/4 343/6/4
f 315/7/4 340/7/4 344/7/4
f 340/7/4 341/7/4 344/7/4
f 341/7/4 339/7/4 345/7/4
f 344/7/4 341/7/4 345/7/4
f 339/6/4 342/6/4 346/6/4
f 345/7/4 339/7/4 346/7/4
f 342/7/4 343/7/4 347/7/4
f 346/6/4 342/6/4 347/6/4
f 345/7/4 346/7/4 348/7/4
f 344/6/4 345/6/4 348/6/4
f 346/7/4 347/7/4 348/7/4
f 348/7/4 347/7/4 349/7/4
f 349/7/4 347/7/4 350/7/4
f 347/7/4 343/7/4 351/7/4
f 350/7/4 347/7/4 351/7/4
f 351/7/4 343/7/4 352/7/4
f 343/6/4 337/6/4 353/6/4
f 352/7/4 343/7/4 353/7/4
f 351/7/4 352/7/4 354/7/4
f 350/6/4 351/6/4 354/6/4
f 352/6/4 353/6/4 355/6/4
f 354/7/4 352/7/4 355/7/4
f 349/7/4 350/7/4 356/7/4
f 348/6/4 349/6/4 356/6/4
f 354/6/4 355/6/4 357/6/4
f 356/7/4 350/7/4 357/7/4
f 350/6/4 354/6/4 357/6/4
f 357/6/4 355/6/4 358/6/4
f 337/6/4 319/6/4 359/6/4
f 358/6/4 355/6/4 359/6/4
f 353/6/4 337/6/4 359/6/4
f 355/6/4 353/6/4 359/6/4
f 357/6/4 358/6/4 360/6/4
f 356/6/4 357/6/4 360/6/4
f 358/7/4 359/7/4 360/7/4
f 360/7/4 359/7/4 361/7/4
f 361/7/4 359/7/4 362/7/4
f 362/7/4 359/7/4 363/7/4
f 360/6/4 361/6/4 364/6/4
f 361/7/4 362/7/4 364/7/4
f 362/6/4 363/6/4 365/6/4
f 364/7/4 362/7/4 365/7/4
f 315/7/4 344/7/4 366/7/4
f 344/6/4 348/6/4 367/6/4
f 366/7/4 344/7/4 367/7/4
f 348/6/4 356/6/4 367/6/4
f 364/6/4 365/6/4 367/6/4
f 360/6/4 364/6/4 367/6/4
f 356/6/4 360/6/4 367/6/4
f 365/6/4 363/6/4 368/6/4
f 367/6/4 365/6/4 368/6/4
f 369/6/4 370/6/4 371/6/4
f 371/6/4 370/6/4 372/6/4
f 373/6/4 374/6/4 375/6/4
f 375/6/4 374/6/4 376/6/4
f 377/6/4 378/6/4 379/6/4
f 379/6/4 378/6/4 380/6/4
f 381/6/4 382/6/4 383/6/4
f 383/6/4 382/6/4 384/6/4
f 385/6/4 386/6/4 387/6/4
f 387/6/4 386/6/4 388/6/4
f 389/6/4 390/6/4 391/6/4
f 391/6/4 390/6/4 392/6/4
f 393/6/4 394/6/4 395/6/4
f 395/6/4 394/6/4 396/6/4
f 397/2/4 398/2/4 400/2/4
f 398/1/4 399/1/4 401/1/4
f 400/2/4 398/2/4 401/2/4
f 400/4/4 401/4/4 402/4/4
f 401/1/4 399/1/4 403/1/4
f 402/4/4 401/4/4 403/4/4
f 402/2/4 403/2/4 404/2/4
f 403/1/4 399/1/4 405/1/4
f 404/2/4 403/2/4 405/2/4
f 405/1/4 399/1/4 406/1/4
f 409/3/5 408/3/5 407/3/5
f 410/3/5 408/3/5 409/3/5
f 411/3/5 408/3/5 410/3/5
f 412/5/5 410/5/5 409/5/5
f 413/5/5 410/5/5 412/5/5
f 414/5/5 412/5/5 409/5/5
f 415/8/5 413/8/5 412/8/5
f 415/5/5 412/5/5 414/5/5
f 416/5/5 414/5/5 409/5/5
f 416/8/5 415/8/5 414/8/5
f 417/5/5 410/5/5 413/5/5
f 417/8/5 415/8/5 416/8/5
f 417/8/5 413/8/5 415/8/5
f 418/3/5 409/3/5 407/3/5
f 419/5/5 416/5/5 409/5/5
f 419/3/5 409/3/5 418/3/5
f 419/5/5 417/5/5 416/5/5
f 420/2/5 419/2/5 418/2/5
f 420/5/5 417/5/5 419/5/5
f 421/5/5 410/5/5 417/5/5
f 421/5/5 417/5/5 420/5/5
f 421/2/5 411/2/5 410/2/5
f 422/2/5 420/2/5 418/2/5
f 423/4/5 421/4/5 420/4/5
f 423/2/5 420/2/5 422/2/5
f 424/2/5 411/2/5 421/2/5
f 424/4/5 421/4/5 423/4/5
f 425/2/5 411/2/5 424/2/5
f 426/8/6 427/8/6 429/8/6
f 427/8/6 428/8/6 429/8/6
f 429/8/6 428/8/6 430/8/6
f 426/8/6 429/8/6 431/8/6
f 430/8/6 428/8/6 432/8/6
f 426/8/6 431/8/6 433/8/6
f 431/8/6 432/8/6 433/8/6
f 432/8/6 428/8/6 434/8/6
f 433/8/6 432/8/6 434/8/6
f 435/1/6 436/1/6 437/1/6
f 437/1/6 436/1/6 438/1/6
f 438/1/6 436/1/6 439/1/6
f 439/1/6 436/1/6 440/1/6
f 435/1/6 437/1/6 441/1/6
f 441/1/6 437/1/6 442/1/6
f 438/1/6 439/1/6 443/1/6
f 443/1/6 439/1/6 444/1/6
f 440/1/6 436/1/6 445/1/6
f 445/1/6 436/1/6 446/1/6
f 446/1/6 436/1/6 447/1/6
f 447/1/6 436/1/6 448/1/6
f 435/1/6 441/1/6 449/1/6
f 448/1/6 436/1/6 452/1/6
f 449/1/6 450/1/6 453/1/6
f 435/1/6 449/1/6 453/1/6
f 453/1/6 450/1/6 454/1/6
f 451/1/6 452/1/6 455/1/6
f 452/1/6 436/1/6 456/1/6
f 455/1/6 452/1/6 456/1/6
f 435/1/6 453/1/6 457/1/6
f 456/1/6 436/1/6 460/1/6
f 457/1/6 458/1/6 461/1/6
f 459/1/6 460/1/6 466/1/6
f 461/1/6 462/1/6 467/1/6
f 463/1/6 464/1/6 468/1/6
f 468/1/6 464/1/6 469/1/6
f 465/1/6 466/1/6 470/1/6
f 461/1/6 467/1/6 471/1/6
f 469/1/6 470/1/6 471/1/6
f 435/1/6 457/1/6 471/1/6
f 457/1/6 461/1/6 471/1/6
f 467/1/6 468/1/6 471/1/6
f 468/1/6 469/1/6 471/1/6
f 470/1/6 466/1/6 472/1/6
f 471/1/6 470/1/6 472/1/6
f 460/1/6 436/1/6 472/1/6
f 466/1/6 460/1/6 472/1/6
f 473/6/6 474/6/6 478/6/6
f 478/6/6 474/6/6 479/6/6
f 475/6/6 476/6/6 480/6/6
f 480/6/6 476/6/6 481/6/6
f 478/6/6 479/6/6 483/6/6
f 481/6/6 482/6/6 483/6/6
f 480/6/6 481/6/6 483/6/6
f 479/6/6 480/6/6 483/6/6
f 477/6/6 478/6/6 483/6/6
f 483/6/6 482/6/6 484/6/6
f 484/6/6 482/6/6 485/6/6
f 477/6/6 483/6/6 487/6/6
f 487/6/6 483/6/6 488/6/6
f 485/6/6 486/6/6 489/6/6
f 484/6/6 485/6/6 489/6/6
f 489/6/6 486/6/6 490/6/6
f 488/6/6 483/6/6 492/6/6
f 484/6/6 489/6/6 493/6/6
f 491/6/6 492/6/6 495/6/6
f 492/6/6 483/6/6 496/6/6
f 495/6/6 492/6/6 496/6/6
f 496/6/6 483/6/6 497/6/6
f 493/6/6 494/6/6 498/6/6
f 484/6/6 493/6/6 498/6/6
f 498/6/6 494/6/6 499/6/6
f 499/6/6 494/6/6 500/6/6
f 496/6/6 497/6/6 501/6/6
f 498/6/6 499/6/6 501/6/6
f 497/6/6 498/6/6 501/6/6
f 501/6/6 499/6/6 502/6/6
f 502/6/6 499/6/6 503/6/6
f 503/6/6 499/6/6 504/6/6
f 504/6/6 499/6/6 505/6/6
f 505/6/6 499/6/6 506/6/6
f 502/6/6 503/6/6 507/6/6
f 507/6/6 503/6/6 508/6/6
f 504/6/6 505/6/6 509/6/6
f 509/6/6 505/6/6 510/6/6
f 511/6/6 512/6/6 517/6/6
f 512/7/6 513/7/6 517/7/6
f 513/6/6 514/6/6 518/6/6
f 517/7/6 513/7/6 518/7/6
f 514/7/6 515/7/6 519/7/6
f 518/6/6 514/6/6 519/6/6
f 515/6/6 516/6/6 520/6/6
f 519/7/6 515/7/6 520/7/6
f 518/6/6 519/6/6 521/6/6
f 520/6/6 516/6/6 521/6/6
f 519/6/6 520/6/6 521/6/6
f 517/6/6 518/6/6 521/6/6
f 521/6/6 516/6/6 522/6/6
f 517/6/6 521/6/6 523/6/6
f 521/7/6 522/7/6 523/7/6
f 523/7/6 522/7/6 524/7/6
f 511/6/6 517/6/6 525/6/6
f 517/6/6 523/6/6 525/6/6
f 523/6/6 524/6/6 525/6/6
f 525/6/6 524/6/6 526/6/6
f 525/7/6 526/7/6 527/7/6
f 526/6/6 524/6/6 528/6/6
f 527/7/6 526/7/6 528/7/6
f 527/6/6 528/6/6 529/6/6
f 528/6/6 524/6/6 530/6/6
f 529/6/6 528/6/6 530/6/6
f 529/7/6 530/7/6 531/7/6
f 530/6/6 524/6/6 532/6/6
f 531/7/6 530/7/6 532/7/6
f 531/6/6 532/6/6 533/6/6
f 532/6/6 524/6/6 533/6/6
f 533/6/6 524/6/6 534/6/6
f 531/6/6 533/6/6 535/6/6
f 533/7/6 534/7/6 536/7/6
f 535/6/6 533/6/6 536/6/6
f 534/6/6 524/6/6 537/6/6
f 536/7/6 534/7/6 537/7/6
f 537/6/6 524/6/6 538/6/6
